<?xml version="1.0" encoding="utf-8"?>
<svg viewBox="0 0 500 500" xmlns="http://www.w3.org/2000/svg">
  <g transform="matrix(0.610507, 0, 0, 0.589732, -25.367104, -100.264618)" style="">
    <path class="factory" d="M 244.144 403.324 L 237.231 408.103 L 232.849 415.226 L 230.777 417.663 L 227.762 419.469 L 225.645 422.835 L 224.109 424.354 L 221.307 425.655 L 219.678 426.295 L 220.473 427.376 L 220.804 428.183 L 220.938 429.336 L 220.076 430.6 L 218.121 431.397 L 217.158 432.3 L 215.928 433.977 L 216.099 434.985 L 216.151 436.077 L 215.955 438.42 L 216.292 440.125 L 214.671 440.711 L 214.199 441.773 L 214.187 443.133 L 214.02 444.541 L 213.974 445.543 L 214.151 446.352 L 214.04 446.937 L 213.669 447.649 L 214.101 453.069 L 212.813 456.103 L 214.317 461.306 L 217.55 461.306 L 220.782 456.319 L 219.494 453.933 L 218.206 448.729 L 220.142 442.869 L 228.968 435.279 L 235.641 433.326 L 234.777 427.033 L 244.035 417.05 L 253.293 415.529 L 251.789 410.336 L 260.574 405.538 L 260.355 398.351 L 259.217 397.698 L 255.097 399.46 L 254.624 403.295 L 244.144 403.324 Z"/>
    <path class="factory" d="M 220.11 427.602 L 219.372 426.545 L 217.454 425.861 L 210.575 424.463 L 203.98 424.113 L 196.469 425.658 L 188.187 426.787 L 185.238 426.814 L 178.016 428.65 L 171.98 430.848 L 166.329 433.166 L 166.113 439.886 L 165.968 443.117 L 167.977 444.837 L 170.335 445.81 L 172.16 456.052 L 175.929 458.395 L 178.915 452.814 L 188.173 446.088 L 194.198 448.905 L 199.367 449.338 L 199.583 446.088 L 210.345 446.305 L 212.333 448.606 L 213.001 447.997 L 213.676 446.896 L 213.77 446.403 L 213.605 445.538 L 213.665 444.403 L 213.811 443.214 L 213.82 441.781 L 214.411 440.448 L 215.888 439.946 L 215.612 438.495 L 215.791 436.196 L 215.752 435.05 L 215.556 433.907 L 216.842 432.149 L 217.816 431.165 L 219.836 430.359 L 220.575 429.256 L 220.459 428.315 L 220.11 427.602 Z"/>
    <path d="M 159.329 378.301 L 159.645 380.366 L 160.506 382.512 L 163.079 386.001 L 162.846 391.782 L 162.519 398.471 L 161.387 402.644 L 160.686 406.648 L 160.776 409.365 L 161.7 416.68 L 163.023 421.312 L 163.818 424.426 L 163.764 426.363 L 162.883 429.485 L 162.432 431.587 L 166.335 432.62 L 171.734 430.42 L 177.958 428.182 L 185.157 426.365 L 187.987 426.298 L 196.35 425.134 L 203.894 423.525 L 210.722 423.777 L 216.971 423.838 L 219.068 423.107 L 221.131 421.813 L 222.834 421.016 L 224.087 418.18 L 226.366 416.003 L 228.908 414.554 L 230.773 411.287 L 223.094 413.672 L 220.99 411.086 L 226.976 402.01 L 224.017 399.184 L 222.008 395.346 L 217.841 391.992 L 213.312 391.612 L 204.755 385.76 L 159.329 378.301 Z"/>
    <path d="M 143.29 375.766 L 142.427 379.241 L 139.416 377.287 L 137.916 377.287 L 137.052 380.978 L 126.52 404.628 L 129.315 425.234 L 132.757 426.971 L 133.404 432.616 L 140.494 432.616 L 147.39 438.06 L 160.566 439.474 L 161.77 431.547 L 163.017 426.2 L 162.99 424.405 L 160.783 416.586 L 159.897 409.44 L 159.812 406.607 L 160.596 402.309 L 161.648 398.24 L 162.153 386.389 L 159.537 382.842 L 158.711 380.295 L 158.501 378.19 L 143.29 375.766 Z"/>
    <path d="M 659.617 420.245 L 660.945 418.804 L 662.812 418.855 L 663.964 419.783 L 664.448 420.369 L 664.859 420.146 L 665.056 419.156 L 664.795 417.714 L 662.038 417.18 L 662.188 415.937 L 664.201 414.889 L 664.886 413.257 L 665.515 412.231 L 665.491 409.688 L 666.548 407.762 L 668.244 406.602 L 667.558 406.369 L 664.254 406.974 L 662.206 407.744 L 662.746 408.246 L 661.039 410.78 L 660.635 412.964 L 659.981 414.476 L 658.877 416.375 L 657.591 417.4 L 655.278 418.876 L 654.552 420.403 L 654.55 422.976 L 652.452 424.781 L 652.015 426.426 L 656.249 424.481 L 658.379 422.365 L 659.617 420.245 Z" class="mountain&quot; d=&quot;M 659.617 420.245 L 660.945 418.804 L 662.812 418.855 L 663.964 419.783 L 664.448 420.369 L 664.859 420.146 L 665.056 419.156 L 664.795 417.714 L 662.038 417.18 L 662.188 415.937 L 664.201 414.889 L 664.886 413.257 L 665.515 412.231 L 665.491 409.688 L 666.548 407.762 L 668.244 406.602 L 667.558 406.369 L 664.254 406.974 L 662.206 407.744 L 662.746 408.246 L 661.039 410.78 L 660.635 412.964 L 659.981 414.476 L 658.877 416.375 L 657.591 417.4 L 655.278 418.876 L 654.552 420.403 L 654.55 422.976 L 652.452 424.781 L 652.015 426.426 L 656.249 424.481 L 658.379 422.365 L 659.617 420.245 Z"/>
    <path d="M 594.562 388.705 L 593.186 392.402 L 589.132 394.924 L 585.946 397.289 L 583.425 400.456 L 581.988 407.399 L 581.716 413.779 L 580.92 418.994 L 583.767 423.086 L 584.309 426.715 L 587.836 428.801 L 591.444 429.478 L 596.162 432.681 L 599.145 434.266 L 600.515 436.998 L 601.863 438.872 L 604.811 440.376 L 610.972 440.871 L 617.402 439.27 L 623.151 440.725 L 628.101 439.936 L 635.357 440.608 L 640.626 444.01 L 642.901 441.911 L 642.364 439.706 L 641.824 436.374 L 640.464 432.813 L 640.873 429.099 L 642.334 424.412 L 643.717 420.236 L 643.835 415.439 L 642.754 411.244 L 641.242 405.675 L 635.156 406.116 L 631.032 403.272 L 625.163 406.34 L 618.861 404.369 L 617.34 400.211 L 606.698 399.554 L 601.052 390.366 L 596.72 386.192 L 594.562 388.705 Z"/>
    <path d="M 666.803 384.671 L 668.918 385.669 L 671.525 387.54 L 674.283 390.637 L 676.45 393.931 L 677.983 397.068 L 677.153 400.891 L 678.071 404.376 L 680.898 404.593 L 680.464 409.624 L 681.985 410.937 L 685.676 407.22 L 686.982 407.004 L 686.549 404.16 L 690.025 400.002 L 692.635 400.218 L 694.156 395.405 L 695.937 394.463 L 696.119 391.463 L 694.39 389.648 L 694.243 384.912 L 697.572 384.695 L 697.356 372.481 L 695.022 373.881 L 694.158 377.011 L 690.261 377.002 L 678.963 370.648 L 670.803 360.811 L 662.522 360.725 L 660.415 362.558 L 663.095 368.695 L 662.16 374.453 L 658.825 375.836 L 660.427 378.67 L 662.24 380.296 L 666.803 382.483 L 666.803 384.671 Z"/>
    <path d="M 674.776 408.342 L 671.716 406.931 L 668.789 406.694 L 666.92 407.941 L 665.891 409.834 L 665.878 412.274 C 665.878 412.274 665.165 413.491 665.16 413.555 L 664.454 415.214 L 662.445 416.239 L 662.367 416.913 L 665.12 417.444 L 665.453 419.15 L 665.204 420.447 L 664.523 420.859 L 663.629 420 L 662.66 419.441 L 661.269 419.438 L 660.129 420.741 L 658.823 423.002 L 656.418 425.277 L 651.867 427.32 L 650.588 431.506 L 648.883 435.225 L 649.699 438.319 L 654.265 439.472 L 661.097 439.967 L 663.376 441.822 L 666.859 445.918 L 667.836 450.846 L 671.015 453.826 L 674.182 457.338 L 675.034 461.552 L 681.197 464.177 L 689.02 454.764 L 691.63 445.79 L 691.413 439.878 L 688.154 439.222 L 690.107 437.034 L 689.673 433.533 L 681.418 425.219 L 681.418 421.062 L 683.804 418 L 686.192 416.902 L 686.408 414.49 L 680.323 414.49 L 679.234 417.775 L 676.406 417.119 L 672.931 413.401 L 674.776 408.342 Z"/>
    <path d="M 651.059 408.771 L 652.94 410.298 L 655.533 411.378 L 658.312 409.283 L 660.917 407.81 L 664.12 406.648 L 667.564 406.047 L 671.696 406.362 L 674.91 407.726 L 677.544 404.556 C 677.544 404.556 676.532 400.657 676.532 400.774 L 677.372 397.242 L 675.993 394.291 L 673.907 391.138 L 671.353 388.239 L 668.86 386.279 L 666.403 385.249 L 666.016 384.543 L 663.685 384.567 L 660.814 390.64 L 660.473 393.387 L 659.022 396.582 L 656.219 400.556 L 652.953 403.703 L 649.588 405.546 L 649.688 407.429 L 651.059 408.771 Z"/>
    <path d="M 641.847 429.332 L 644.235 428.621 L 648.425 425.128 L 651.657 424.416 L 653.791 422.683 L 653.783 420.395 L 654.657 418.419 L 656.852 417.074 L 658.216 415.968 L 659.392 414.471 L 660.104 412.991 L 660.573 410.68 L 662.15 408.397 L 661.469 408.178 L 658.608 409.702 L 655.711 411.877 L 655.303 411.81 L 654.811 413.016 L 653.066 414.488 L 650.583 414.098 L 648.359 414.623 L 646.281 412.87 L 645.291 410.392 L 643.124 409.111 L 644.607 415.132 L 644.677 420.579 L 641.847 429.332 Z"/>
    <path d="M 531.176 416.63 L 531.645 414.788 L 530.787 411.588 L 531.154 409.389 L 532.578 406.974 L 533.544 405.066 L 534.258 401.08 L 533.322 396.89 L 531.469 393.884 L 531.106 392.37 L 531.434 390.853 L 532.544 387.93 L 534.748 386.209 L 538.148 385.262 L 543.741 379.805 L 546.62 374.27 L 547.828 369.553 L 547.771 362.406 L 550.876 350.953 L 556.965 343.868 L 563.243 340.308 L 566.157 335.37 L 565.812 329.289 L 566.839 323.306 L 569.678 316.372 L 573.695 309.405 L 578.254 303.041 L 577.62 298.854 L 579.693 295.981 L 580.945 295.442 L 581.905 295.75 L 582.786 297.063 L 585.034 297.784 L 587.18 297.433 L 589.258 296.441 L 590.708 294.257 L 594.456 286.826 L 590.98 287.042 L 590.547 283.542 L 601.629 273.913 L 601.629 267.343 L 594.463 265.372 L 585.118 268.433 L 581.211 264.491 L 579.474 264.491 L 577.303 268.865 L 579.041 270.836 L 566.653 277.623 L 556.011 285.723 L 549.492 294.695 L 549.492 298.412 L 556.441 301.257 L 552.966 303.884 L 545.584 301.257 L 542.54 303.884 L 537.977 298.628 L 537.104 300.6 L 542.1 316.358 L 543.405 316.798 L 546.883 315.044 L 548.619 316.357 L 548.619 319.201 L 545.36 317.888 L 543.405 319.417 L 544.713 322.261 L 543.623 329.704 L 536.889 330.361 L 536.457 327.949 L 540.364 325.538 L 541.237 318.968 L 536.888 313.28 L 535.367 303.434 L 528.419 302.336 L 527.771 305.836 L 529.076 307.59 L 526.251 310.002 L 527.34 316.572 L 531.464 318.327 L 532.337 323.141 L 528.204 320.514 L 518.362 318.749 L 516.79 321.906 L 515.883 326.795 L 513.473 329.134 L 511.154 332.548 L 509.777 333.3 L 508.256 335.183 L 506.972 339.108 L 503.952 344.376 L 498.51 350.314 L 497.303 353.562 L 497.276 355.467 L 498.066 359.05 L 498.824 370.354 L 499.389 374.536 L 501.072 382.312 L 500.76 385.454 L 497.274 394.804 L 496.49 401.691 L 497.486 402.826 L 499.552 408.312 L 497.939 419.445 L 501.365 421.103 L 504.172 421.124 L 503.885 423.969 L 507.567 427.001 L 510.266 427.5 L 511.508 425.896 L 513.029 425.492 L 514.326 423.699 L 516.67 424.139 L 516.562 422.997 L 513.907 420.085 L 514.555 418.329 L 511.079 415.046 L 511.079 410.888 L 508.908 410.231 L 509.342 406.731 L 512.818 402.573 L 516.872 400.815 L 521.011 400.575 L 521.218 406.777 L 518.995 406.909 L 517.311 409.692 L 519.372 413.227 L 522.968 415.452 L 523.153 417.367 L 524.697 417.057 L 525.312 415.805 L 527.68 416.248 L 528.597 417.948 L 531.176 416.63 Z"/>
    <g id="g-15" transform="matrix(1, 0, 0, 1, 71.22348, 40.063206)"/>
    <g id="g-16" transform="matrix(1, 0, 0, 1, 71.22348, 40.063206)"/>
    <g id="g-17" transform="matrix(1, 0, 0, 1, 71.22348, 40.063206)"/>
    <g id="g-18" transform="matrix(1, 0, 0, 1, 71.22348, 40.063206)"/>
    <g id="g-4" transform="matrix(1, 0, 0, 1, 71.22348, 40.063206)"/>
    <g id="g-5" transform="matrix(1, 0, 0, 1, 71.22348, 40.063206)"/>
    <g id="g-6" transform="matrix(1, 0, 0, 1, 71.22348, 40.063206)"/>
    <g id="g-7" transform="matrix(1, 0, 0, 1, 71.22348, 40.063206)"/>
    <g id="g-8" transform="matrix(1, 0, 0, 1, 71.22348, 40.063206)"/>
    <g id="g-9" transform="matrix(1, 0, 0, 1, 71.22348, 40.063206)"/>
    <g id="g-10" transform="matrix(1, 0, 0, 1, 71.22348, 40.063206)"/>
    <g id="g-11" transform="matrix(1, 0, 0, 1, 71.22348, 40.063206)"/>
    <g id="g-12" transform="matrix(1, 0, 0, 1, 71.22348, 40.063206)"/>
    <g id="g-13" transform="matrix(1, 0, 0, 1, 0.017136, 0.255845)"/>
    <g id="g-14" transform="matrix(1, 0, 0, 1, 0.121776, -0.126388)">
      <path d="M452.236,364.042l-1.308,0.44l1.308,0.226l0.595,0.69l0.711-0.852l-0.709-1.215L452.236,364.042z"/>
      <path d="M452.792,365.792l-1.862,0.833l-0.643,1.111l0.643,0.722l2.362-0.875l1.137-0.752L452.792,365.792z"/>
      <path d="M 497.487 419.085 L 498.961 408.663 L 496.917 403.194 L 495.847 402.016 L 496.619 394.646 L 498.929 388.904 L 500.242 385.296 L 500.527 382.496 L 498.91 374.887 L 498.301 370.315 L 497.446 359.225 L 496.638 355.473 L 496.677 353.575 L 497.907 350.096 L 503.304 344.325 L 506.077 339.161 L 507.55 335.063 L 509.169 332.975 L 510.357 332.363 L 512.704 328.862 L 514.998 326.722 L 516.048 321.936 L 507.575 324.996 L 506.27 322.809 L 495.188 328.936 L 494.972 333.094 L 490.624 333.751 L 491.93 330.691 L 491.93 327.63 L 487.581 326.101 L 484.755 327.199 L 487.141 331.798 L 488.878 334.858 L 488.878 337.27 L 485.618 336.614 L 484.971 335.957 L 481.711 339.458 L 483.448 342.519 L 476.065 342.302 L 478.452 345.371 L 477.805 346.684 L 473.898 346.684 L 471.071 344.713 L 470.424 339.241 L 465.861 337.486 L 465.861 335.299 L 475.422 337.271 L 480.635 337.711 L 482.805 334.426 L 480.851 330.925 L 466.952 325.453 L 462.154 326.645 L 460.512 328.055 L 461.023 331.295 L 463.062 331.649 L 462.586 336.75 L 468.879 351.531 L 464.331 358.74 L 464.019 360.365 L 466.328 361.99 L 464.275 362.841 L 461.153 363.191 L 457.222 363.122 L 454.973 364.891 L 454.955 366.215 L 456.198 368.576 L 455.34 370.841 L 453.131 371.946 L 451.433 370.889 L 450.759 368.916 L 449.435 369.51 L 448.061 371.977 L 449.584 375.398 L 450.332 376.203 L 450.465 376.983 L 450.028 377.989 L 449.793 380.051 L 449.552 380.786 L 454.638 380.874 L 457.221 384.825 L 456.465 386.849 L 455.101 388.043 L 453.263 388.708 L 451.687 388.314 L 449.916 387.523 L 447.166 387.447 L 442.986 390.85 L 439.695 392.246 L 439.689 392.753 L 443.159 394.365 L 447.765 397.622 L 450.102 398.172 L 452.123 397.36 L 453.185 397.387 L 454.452 398.067 L 455.727 397.406 L 455.844 400.077 L 457.23 401.006 L 464.427 401.372 L 467.156 405.575 L 467.086 408.053 L 468.571 408.136 L 471.597 408.928 L 475.166 404.865 L 477.159 405.157 L 479.028 406.479 L 477.503 408.562 L 479.509 411.872 L 481.85 411.891 L 483.02 409.789 L 485.43 409.151 L 485.476 407.427 L 480.947 406.747 L 481.214 404.726 L 485.613 404.615 L 489.14 401.788 L 490.229 403.343 L 486.969 406.845 L 486.105 410.129 L 488.059 412.974 L 494.36 415.161 L 497.487 419.085 Z" id="mainland&quot; d=&quot;M 497.487 419.085 L 498.961 408.663 L 496.917 403.194 L 495.847 402.016 L 496.619 394.646 L 498.929 388.904 L 500.242 385.296 L 500.527 382.496 L 498.91 374.887 L 498.301 370.315 L 497.446 359.225 L 496.638 355.473 L 496.677 353.575 L 497.907 350.096 L 503.304 344.325 L 506.077 339.161 L 507.55 335.063 L 509.169 332.975 L 510.357 332.363 L 512.704 328.862 L 514.998 326.722 L 516.048 321.936 L 507.575 324.996 L 506.27 322.809 L 495.188 328.936 L 494.972 333.094 L 490.624 333.751 L 491.93 330.691 L 491.93 327.63 L 487.581 326.101 L 484.755 327.199 L 487.141 331.798 L 488.878 334.858 L 488.878 337.27 L 485.618 336.614 L 484.971 335.957 L 481.711 339.458 L 483.448 342.519 L 476.065 342.302 L 478.452 345.371 L 477.805 346.684 L 473.898 346.684 L 471.071 344.713 L 470.424 339.241 L 465.861 337.486 L 465.861 335.299 L 475.422 337.271 L 480.635 337.711 L 482.805 334.426 L 480.851 330.925 L 466.952 325.453 L 462.154 326.645 L 460.512 328.055 L 461.023 331.295 L 463.062 331.649 L 462.586 336.75 L 468.879 351.531 L 464.331 358.74 L 464.019 360.365 L 466.328 361.99 L 464.275 362.841 L 461.153 363.191 L 457.222 363.122 L 454.973 364.891 L 454.955 366.215 L 456.198 368.576 L 455.34 370.841 L 453.131 371.946 L 451.433 370.889 L 450.759 368.916 L 449.435 369.51 L 448.061 371.977 L 449.584 375.398 L 450.332 376.203 L 450.465 376.983 L 450.028 377.989 L 449.793 380.051 L 449.552 380.786 L 454.638 380.874 L 457.221 384.825 L 456.465 386.849 L 455.101 388.043 L 453.263 388.708 L 451.687 388.314 L 449.916 387.523 L 447.166 387.447 L 442.986 390.85 L 439.695 392.246 L 439.689 392.753 L 443.159 394.365 L 447.765 397.622 L 450.102 398.172 L 452.123 397.36 L 453.185 397.387 L 454.452 398.067 L 455.727 397.406 L 455.844 400.077 L 457.23 401.006 L 464.427 401.372 L 467.156 405.575 L 467.086 408.053 L 468.571 408.136 L 471.597 408.928 L 475.166 404.865 L 477.159 405.157 L 479.028 406.479 L 477.503 408.562 L 479.509 411.872 L 481.85 411.891 L 483.02 409.789 L 485.43 409.151 L 485.476 407.427 L 480.947 406.747 L 481.214 404.726 L 485.613 404.615 L 489.14 401.788 L 490.229 403.343 L 486.969 406.845 L 486.105 410.129 L 488.059 412.974 L 494.36 415.161 L 497.487 419.085 Z"/>
    </g>
    <path d="M 442.247 431.842 L 440.994 431.168 L 436.716 431.842 L 436.862 433 L 440.709 434.937 L 441.288 435.568 L 442.3 435.715 L 442.247 431.842 Z"/>
    <path d="M 427.126 422.159 L 424.837 423.317 L 425.14 427.786 L 426.973 428.097 L 428.347 426.785 L 428.347 422.55 L 427.126 422.159 Z"/>
    <path d="M423.233,409.391l-0.535,1.356l0.146,1.478l2.065,2.412l3.25-0.113l7.175,8.334l4.479,1.297l2.646,2.498l0.631,5.695l1.417-0.828l1.229-3.104l-0.303-2.229l2.101-0.19l0.304-1.263l-5.922-2.834l-5.619-5.523l-2.238-3.303l-0.545-3.137l2.861-0.684l-0.734-2.066l-1.755-1.478l-1.513-0.069l-2.108,0.58l-1.99,2.781l-1.201,0.795l-1.858-1.141L423.233,409.391L423.233,409.391z" id="it"/>
    <path d="M387.499,421.716l-0.536,7.478l-1.53,1.384l0.156,0.846l1.071,1.772l-0.691,2.16l1.149,0.39l2.68-0.312l-0.155-2.16l1.756-10.02l-0.382-1.383L387.499,421.716L387.499,421.716z"/>
    <path d="M 417.103 483.751 L 414.244 483.526 L 413.211 485.579 L 413.366 488.44 L 412.641 489.879 L 409.379 490.143 L 406.545 489.25 L 404.19 489.48 L 401.046 491.758 L 399.766 493.515 L 399.856 495.201 L 400.224 496.189 L 401.603 497.761 L 404.219 498.058 L 408.368 499.059 L 409.717 499.039 L 410.233 498.356 L 409.423 497.72 L 402.297 495.532 L 404.281 493.134 L 416.152 491.808 L 417.103 483.751 Z" class="mountain&quot; d=&quot;M 417.103 483.751 L 414.244 483.526 L 413.211 485.579 L 413.366 488.44 L 412.641 489.879 L 409.379 490.143 L 406.545 489.25 L 404.19 489.48 L 401.046 491.758 L 399.766 493.515 L 399.856 495.201 L 400.224 496.189 L 401.603 497.761 L 404.219 498.058 L 408.368 499.059 L 409.717 499.039 L 410.233 498.356 L 409.423 497.72 L 402.297 495.532 L 404.281 493.134 L 416.152 491.808 L 417.103 483.751 Z"/>
    <path class="mainland" d="M402.565,416.322h-11.014l-2.222-1.004l-1.071,0.078l-1.297,2.696l0.458,2.775l4.21,0.389l0.536,1.771l-1.833,10.33l0.078,1.851l2.981,1.617l3.439,0.232l6.881-1.694l3.363-4.233l0.077-4.313l5.965-5.395l0.302-2.386l-5.428-0.078L402.565,416.322L402.565,416.322z" id="es&quot; d=&quot;M402.565,416.322h-11.014l-2.222-1.004l-1.071,0.078l-1.297,2.696l0.458,2.775l4.21,0.389l0.536,1.771l-1.833,10.33l0.078,1.851l2.981,1.617l3.439,0.232l6.881-1.694l3.363-4.233l0.077-4.313l5.965-5.395l0.302-2.386l-5.428-0.078L402.565,416.322L402.565,416.322z"/>
    <path d="M413.578,426.877l-1.375,0.467l0.304,1.235h1.988l0.839-0.925L413.578,426.877L413.578,426.877z"/>
    <path d="M 412.91 393.175 L 411 393.642 L 407.18 397.8 L 406.031 397.878 L 404.501 396.797 L 403.508 397.03 L 402.746 399.416 L 397.162 399.571 L 397.318 400.807 L 401.138 403.35 L 402.849 403.483 L 404.627 404.093 L 406.529 403.37 L 408.575 402.796 L 410.944 401.606 L 414.117 400.974 L 417.062 399.31 L 418.848 398.132 L 419.533 397.35 L 412.91 393.175 Z"/>
    <path d="M 419.739 397.679 L 419.054 398.425 L 417.304 399.575 L 414.363 401.255 L 411.166 401.914 L 408.81 403.093 L 406.815 403.661 L 404.863 404.381 L 403.101 403.785 L 401.376 403.662 L 405.804 407.266 L 405.727 411.502 L 407.088 411.921 L 409.05 411.693 L 411.335 411.083 L 414.006 410.529 L 418.017 410.089 L 419.722 408.026 L 419.49 406.643 L 420.953 403.797 L 420.407 400.401 L 421.196 398.71 L 419.739 397.679 Z"/>
    <path d="M 165.771 433.044 L 162.327 431.99 L 161.197 439.998 L 162.787 445.672 L 165.198 447.729 L 167.561 445.358 L 165.33 443.339 L 165.771 433.044 Z" class="mountain&quot; d=&quot;M 165.771 433.044 L 162.327 431.99 L 161.197 439.998 L 162.787 445.672 L 165.198 447.729 L 167.561 445.358 L 165.33 443.339 L 165.771 433.044 Z"/>
    <path d="M 226.616 416.431 L 229.305 414.974 L 231.387 411.173 L 235.368 409.675 L 232.257 414.883 L 230.198 417.346 L 227.254 419.108 L 225.046 422.741 L 223.827 424.091 L 219.283 426.035 L 217.487 425.417 L 212.403 424.394 L 213.041 424.154 L 217.155 424.272 L 219.402 423.441 L 221.207 422.306 L 223.154 421.261 L 224.431 418.368 L 226.616 416.431 Z" class="mountain&quot; d=&quot;M 226.616 416.431 L 229.305 414.974 L 231.387 411.173 L 235.368 409.675 L 232.257 414.883 L 230.198 417.346 L 227.254 419.108 L 225.046 422.741 L 223.827 424.091 L 219.283 426.035 L 217.487 425.417 L 212.403 424.394 L 213.041 424.154 L 217.155 424.272 L 219.402 423.441 L 221.207 422.306 L 223.154 421.261 L 224.431 418.368 L 226.616 416.431 Z"/>
    <path class="mainland" d="M 720.255 577.714 L 735.434 612.084 L 736.192 628.923 L 744.985 626.248 L 755.792 625.795 L 760.08 628.366 L 761.572 616.939 L 757.843 611.225 L 759.337 610.02 L 756.352 598.887 L 753.123 596.179 L 753.619 581.14 L 750.633 578.432 L 749.892 570.009 L 748.397 570.009 L 743.423 589.861 L 740.692 590.165 L 734.476 582.641 L 737.961 571.507 L 731.499 570.001 L 724.288 572.408 L 720.255 577.714 Z" style=""/>
    <path d="M 105.84 109.419 L 107.002 107.662 L 107.887 107.546 L 108.888 108.233 L 108.925 108.976 L 106.506 112.65 L 106.773 113.155 L 104.664 113.684 L 104.635 111.875 L 105.84 109.419 Z" class="mountain&quot; d=&quot;M 105.84 109.419 L 107.002 107.662 L 107.887 107.546 L 108.888 108.233 L 108.925 108.976 L 106.506 112.65 L 106.773 113.155 L 104.664 113.684 L 104.635 111.875 L 105.84 109.419 Z"/>
    <path d="M 394.915 383.085 L 394.129 388.272 L 387.154 390.832 L 384.931 390.832 L 383.349 389.717 L 383.349 388.757 L 386.841 386.519 L 385.89 384.599 L 386.046 381.885 L 389.064 382.04 L 390.447 378.79 L 393.683 377.313 L 396.067 380.118 L 394.915 383.085 Z"/>
    <path d="M 400.247 378.024 L 405.332 378.979 L 406.913 382.651 L 409.446 383.61 L 410.551 385.53 L 410.396 387.285 L 408.814 388.244 L 408.658 389.039 L 409.764 389.679 L 408.813 390.958 L 406.592 391.917 L 402.313 391.44 L 395.649 394.475 L 393.428 393.36 L 399.773 389.686 L 398.977 389.209 L 395.649 388.889 L 397.707 385.856 L 398.026 383.296 L 400.722 382.977 L 400.247 378.024 Z"/>
    <path d="M 400.64 364.625 L 399.058 367.02 L 399.689 367.979 L 403.337 367.979 L 403.337 369.579 L 402.385 370.857 L 403.017 374.211 L 405.075 378.205 L 399.99 377.25 L 396.816 377.095 L 395.866 375.98 L 396.021 372.306 L 394.12 372.462 L 396.021 366.074 L 399.513 363.514 L 400.64 364.625 Z"/>
    <path d="M 246.254 592.916 L 246.63 594.521 L 246.011 597.689 L 244.508 599.999 L 242.495 614.894 L 245.407 626.933 L 244.466 635.887 L 248.367 650.961 L 250.3 662.197 L 251.347 677.495 L 255.824 682.422 L 258.858 682.031 L 259.839 682.503 L 260.399 681.886 L 256.268 680.996 L 252.636 677.292 L 252.195 662.02 L 251.747 646.624 L 247.76 636.658 L 248.56 626.459 L 247.329 615.102 L 248.163 603.236 L 249.354 597.287 L 247.711 594.328 L 247.89 593.703 L 246.254 592.916 Z" class="mountain&quot; d=&quot;M 246.254 592.916 L 246.63 594.521 L 246.011 597.689 L 244.508 599.999 L 242.495 614.894 L 245.407 626.933 L 244.466 635.887 L 248.367 650.961 L 250.3 662.197 L 251.347 677.495 L 255.824 682.422 L 258.858 682.031 L 259.839 682.503 L 260.399 681.886 L 256.268 680.996 L 252.636 677.292 L 252.195 662.02 L 251.747 646.624 L 247.76 636.658 L 248.56 626.459 L 247.329 615.102 L 248.163 603.236 L 249.354 597.287 L 247.711 594.328 L 247.89 593.703 L 246.254 592.916 Z"/>
    <path d="M 265.498 521.002 L 265.625 519.141 L 258.344 519.324 L 255.962 517.108 L 252.309 518.574 L 248.869 520.89 L 247.593 522.072 L 247.596 523.413 L 245.968 523.953 L 245.728 525.876 L 244.861 527.742 L 237.176 528.25 L 232.945 530.65 L 232.409 534.697 L 229.216 539.233 L 231.765 540.344 L 225.206 547.431 L 225.28 553.709 L 231.868 558.56 L 234.445 558.667 L 238.628 560.694 L 241.072 560.418 L 245.224 562.135 L 248.886 566.145 L 256.551 569.747 L 261.325 574.875 L 266.607 575.912 L 269.029 580.435 L 268.051 584.112 L 269.532 585.833 L 272.379 582.992 L 273.23 576.729 L 270.289 572.964 L 265.311 571.153 L 262.471 567.659 L 253.241 564.206 L 249.22 556.755 L 245.034 556.649 L 242.167 554.827 L 238.806 555.388 L 231.711 551.376 L 231.448 547.649 L 233.943 544.317 L 238.518 541.549 L 240.221 537.133 L 244.063 534.811 L 247.698 533.72 L 247.948 531.739 L 253.04 528.317 L 257.72 526.685 L 260.164 524.383 L 264.852 523.356 L 268.371 523.71 L 265.498 521.002 Z" class="mountain&quot; d=&quot;M 265.498 521.002 L 265.625 519.141 L 258.344 519.324 L 255.962 517.108 L 252.309 518.574 L 248.869 520.89 L 247.593 522.072 L 247.596 523.413 L 245.968 523.953 L 245.728 525.876 L 244.861 527.742 L 237.176 528.25 L 232.945 530.65 L 232.409 534.697 L 229.216 539.233 L 231.765 540.344 L 225.206 547.431 L 225.28 553.709 L 231.868 558.56 L 234.445 558.667 L 238.628 560.694 L 241.072 560.418 L 245.224 562.135 L 248.886 566.145 L 256.551 569.747 L 261.325 574.875 L 266.607 575.912 L 269.029 580.435 L 268.051 584.112 L 269.532 585.833 L 272.379 582.992 L 273.23 576.729 L 270.289 572.964 L 265.311 571.153 L 262.471 567.659 L 253.241 564.206 L 249.22 556.755 L 245.034 556.649 L 242.167 554.827 L 238.806 555.388 L 231.711 551.376 L 231.448 547.649 L 233.943 544.317 L 238.518 541.549 L 240.221 537.133 L 244.063 534.811 L 247.698 533.72 L 247.948 531.739 L 253.04 528.317 L 257.72 526.685 L 260.164 524.383 L 264.852 523.356 L 268.371 523.71 L 265.498 521.002 Z"/>
    <path d="M533.315,498.138l1.842,2.059l2.489-1.504l0.897-0.304l-1.141-1.105l-2.188,0.647L533.315,498.138L533.315,498.138z" id="so&quot; d=&quot;M533.315,498.138l1.842,2.059l2.489-1.504l0.897-0.304l-1.141-1.105l-2.188,0.647L533.315,498.138L533.315,498.138z"/>
    <path d="M 509.432 489.131 L 510.676 492.831 L 511.353 496.114 L 514.942 498.539 L 534.741 490.574 L 534.939 488.215 L 531.558 482.148 L 523.079 484.854 L 518.213 489.641 L 512.568 486.305 L 509.432 489.131 Z" id="ye&quot; d=&quot;M 509.432 489.131 L 510.676 492.831 L 511.353 496.114 L 514.942 498.539 L 534.741 490.574 L 534.939 488.215 L 531.558 482.148 L 523.079 484.854 L 518.213 489.641 L 512.568 486.305 L 509.432 489.131 Z"/>
    <g id="mu" transform="matrix(0.372719, 0, 0, 0.347784, 119.679237, 57.778645)">
      <path d="M 1138.169 1517.141 L 1135.842 1519.862 L 1136.301 1522.797 L 1141.21 1519.231 L 1138.169 1517.141 Z" style=""/>
      <path d="M 1129.033 1521.619 L 1124.095 1522.005 L 1123.772 1527.16 L 1127.059 1527.965 L 1131.999 1525.196 L 1129.033 1521.619 Z" style=""/>
    </g>
    <path id="ae" d="M 528.351 467.599 L 529.219 471.143 L 537.741 471.895 L 538.337 465.723 L 539.981 464.826 L 540.429 462.569 L 537.741 463.322 L 534.751 467.843 L 529.43 467.379 L 529.687 463.064 L 528.804 462.338 L 527.273 463.104 L 526.875 466.509 L 528.351 467.599 Z"/>
    <path id="af" d="M 545.872 435.307 L 547.194 446.084 L 550.614 446.854 L 554.159 443.82 L 560.936 442.261 L 562.723 441.862 L 563.942 440.709 L 565.095 438.583 L 566.329 436.86 L 567.949 435.452 L 568.915 432.94 L 570.042 430.766 L 573.163 427.53 L 574.623 426.003 L 574.345 425.131 L 572.886 423.178 L 572.165 421.094 L 571.549 421.369 L 560.996 417.081 L 555.882 416.691 L 558.35 429.026 L 551.86 429.666 L 550.786 432.481 L 549.259 434.901 L 545.872 435.307 Z" style="transform-origin: 560.809px 439.871px;"/>
    <g id="ao">
      <path class="mainland" d="M437.366,547.461l2.948,11.003l-0.069,3.478l-4.313,4.633l-0.647,7.527l16.597,0.147l5.395,1.954l4.45-0.58l-2.594-3.251l0.01-9.282l5.101-0.217v-3.621l-4.142-0.172l-0.829-8.575l-1.746,0.024l-0.943-0.848l-1.027,0.054l-1.365,2.646h-5.255l-1.22-1.227l0.363-1.738l-1.436-2.101L437.366,547.461L437.366,547.461z"/>
    </g>
    <g id="ar">
      <path class="mainland" d="M 279.05 600.613 L 280.727 602.184 L 274.356 611.651 L 272.117 614.13 L 272.894 624.943 L 277.812 630.917 L 273.68 638.126 L 270.551 639.476 L 266.972 639.476 L 267.975 645.103 L 262.382 647.023 L 263.722 651.752 L 260.368 662.453 L 264.509 665.833 L 262.27 671.348 L 258.466 677.323 L 260.48 681.488 L 256.37 680.385 L 253.202 676.999 L 252.871 661.653 L 252.377 646.112 L 248.566 636.277 L 249.524 626.246 L 248.261 614.602 L 249.097 603.078 L 250.243 597.216 L 248.783 594.108 L 250.169 591.561 L 257.223 592.044 L 261.165 596.254 L 265.72 596.332 L 270.388 599.185 L 269.013 602.402 L 269.342 605.652 L 275.954 605.34 L 279.05 600.613 Z"/>
      <path d="M264.745,687.564l0.225,4.951l3.803-0.337l3.242-2.144l-5.48-1.124L264.745,687.564L264.745,687.564z"/>
    </g>
    <path id="bd" d="M616.256,457.908l-1.134,2.049l2.938,5.584l0.087,4.357l0.535,1.166l3.449,0.061l1.953-1.875l1.418,0.855l0.285,2.652l1.133-0.708l0.069-3.389l-0.951-0.112l-0.596-2.879l-2.403-0.086l-0.596-1.6l1.469-1.962l0.024-0.97h-4.269L616.256,457.908L616.256,457.908z"/>
    <path id="be" d="M 414.08 391.641 L 413.465 392.856 L 421.918 398.217 L 422.03 396.745 L 421.753 395.738 L 419.688 393.882 L 418.772 393.882 L 417.517 392.456 L 414.08 391.641 Z"/>
    <path id="bg" d="M 457.092 414.066 L 454.697 414.797 L 451.767 416.629 L 449.603 419.05 L 449.553 420.946 L 450.648 422.33 L 453.626 422.245 L 454.983 423.258 L 458.683 421.396 L 464.137 421.491 L 466.592 419.754 L 469.004 418.795 L 468.416 416.045 L 468.961 414.576 L 467.733 413.935 L 466.046 414.074 L 464.723 415.406 L 459.174 415.449 L 457.092 414.066 Z"/>
    <path id="bo" d="M 238.631 561.361 L 241.009 561.018 L 244.538 562.391 L 248.414 566.542 L 256.05 570.144 L 261.043 575.493 L 265.852 576.349 L 268.208 580.726 L 267.321 583.713 L 260.051 584.275 L 257.371 591.147 L 251.666 591.035 L 249.876 590.698 L 247.818 592.696 L 246.199 591.967 L 240.912 578.466 L 241.457 569.303 L 240.074 563.848 L 238.631 561.361 Z"/>
    <path id="br" d="M 286.631 618.464 L 292.033 608.073 L 292.231 599.343 L 302.31 592.842 L 307.955 592.842 L 312.39 585.33 L 313.194 570.912 L 311.379 567.057 L 322.063 557.306 L 322.469 546.545 L 307.955 539.44 L 290.425 533.96 L 282.161 533.148 L 284.382 528.479 L 283.778 521.375 L 281.97 520.779 L 279.299 526.087 L 277.899 527.841 L 274.288 525.912 L 268.947 527.92 L 268.331 527.516 L 268.524 524.073 L 265.105 523.759 L 260.66 524.665 L 258.019 526.998 L 253.305 528.614 L 248.596 531.86 L 248.326 534.089 L 244.414 535.22 L 240.873 537.44 L 239.126 541.988 L 234.345 544.849 L 232.084 547.867 L 232.296 550.905 L 235.162 552.691 L 238.891 554.64 L 242.356 554.132 L 245.3 556.065 L 249.65 556.151 L 253.661 563.722 L 262.702 566.974 L 265.638 570.463 L 270.646 572.221 L 274.011 576.575 L 273.052 583.364 L 269.861 586.569 L 269.585 590.252 L 274.633 589.775 L 279.258 595.619 L 278.895 599.724 L 281.635 602.04 L 275.065 611.99 L 286.631 618.464 Z"/>
    <g id="bs">
      <path d="M222.121,463.112l-1.089-0.337l-0.086,2.101l1.34,1.349l0.917-1.349L222.121,463.112L222.121,463.112z"/>
      <path d="M224.29,466.397l-1.504,0.838l1.417,2.021l0.752-1.011L224.29,466.397L224.29,466.397z"/>
      <path d="M229.14,467.91l-1.591-0.087l0.165,1.012l1.167,1.687l1.002-1.099L229.14,467.91L229.14,467.91z"/>
      <path d="M228.388,465.896l-2.593-1.099l-0.501-2.609l1.002-0.425l1.003,2.023l1.002,0.76L228.388,465.896L228.388,465.896z"/>
      <path d="M225.881,460.588l-1.34-0.337l-0.251-1.686l-1.417-0.501l0.917-0.926l1.668,0.588l1.253,0.762L225.881,460.588L225.881,460.588z"/>
      <path d="M 222.413 463.37 L 221.324 463.033 L 221.238 465.134 L 222.578 466.483 L 223.495 465.134 L 222.413 463.37 Z"/>
    </g>
    <path id="bt" d="M616.108,453.561l1.34,1.833l4.528,0.034l-0.458-2.507L616.108,453.561L616.108,453.561z"/>
    <path id="bw" d="M 454.56 594.589 L 456.418 595.159 L 456.158 600.473 L 458.069 600.733 L 462.46 596.774 L 467.733 597.344 L 469.132 593.799 L 475.805 587.704 L 467.792 578.481 L 467.642 577.014 L 466.646 576.566 L 462.598 576.306 L 457.786 576.954 L 458.224 578.394 L 457.181 586.967 L 454.702 587.537 L 454.56 594.589 Z"/>
    <g id="ca">
      <path d="M130.684,350.117l-1.47,2.818l0.51,1.996l0.959,0.598l-0.225,0.812l-1.029,0.294l0.294,2.965l1.106,1.115l0.882-0.959l-1.106-2.887l0.657-2.299l1.616-2.152l-1.175-1.997L130.684,350.117L130.684,350.117z"/>
      <path d="M135.542,367.008l-1.323,0.52l2.429,2.818l0.588,3.336l2.429,2.592l2.058-0.371v-3.406l-2.498-1.557L135.542,367.008L135.542,367.008z"/>
      <path d="M268.15,295.833l-1.53,1.547l1.34,2.126l6.328,0.77l-4.028-4.252L268.15,295.833L268.15,295.833z"/>
      <path d="M191.105,270.143l0.19,3.475l-6.898,7.148l1.729,5.791l4.979-1.348l2.878-4.253l7.278-2.706l5.938-0.389l-4.599-5.022l-2.299,1.737l-1.729-0.579l-0.959-2.126l-2.109-2.126L191.105,270.143L191.105,270.143z"/>
      <path d="M200.113,259.908l-1.53,2.706l7.477,2.706l2.68-4.055l1.15,2.707h1.919l3.639-4.055l-4.409-1.158l-1.729-1.348l-2.299,2.316L200.113,259.908L200.113,259.908z"/>
      <path d="M213.148,265.318l-5.938,2.508v1.928l7.667,2.896l-1.729,1.928l1.15,2.507l4.789-2.126h4.028l1.919,3.086l3.259-3.285l-0.77-3.095l-2.68,0.968l-0.38-3.863l1.34-2.316h-1.34l-2.109,1.349l-0.959,0.769l0.579,2.707l-1.53,1.158l-2.299-0.19l-0.579-3.476L213.148,265.318L213.148,265.318z"/>
      <path d="M221.005,259.329l-0.579,1.927l3.639,1.738l2.68-1.547l-0.19-1.158L221.005,259.329L221.005,259.329z"/>
      <path d="M223.875,256.044l-2.679,0.968l0.19,1.35l5.938-0.389l-0.19-1.349L223.875,256.044L223.875,256.044z"/>
      <path d="M236.72,259.329l-0.38,1.348l-0.959,1.349v1.929l3.639-0.579l3.83,3.285h1.34v-3.285l-3.83-4.253L236.72,259.329L236.72,259.329z"/>
      <path d="M246.497,263.191l1.53,1.738l-1.34,2.316l0.959,2.507l4.218-2.317v-1.736l-2.49-2.896L246.497,263.191L246.497,263.191z"/>
      <path d="M252.055,258.75l0.19,3.086h5.178l1.34,1.158l-0.19,1.348l-4.599,0.58l3.259,4.443l4.409,0.77l6.128-2.705l-8.817-13.33l-2.68,1.738l0.19,2.316l-3.069-1.158L252.055,258.75L252.055,258.75z"/>
      <path d="M 209.513 279.846 L 202.235 281.774 L 198.016 285.447 L 198.396 289.501 L 206.063 291.818 L 204.334 295.682 L 198.776 292.205 L 197.246 295.101 L 200.885 297.608 L 200.695 301.662 L 206.253 303.209 L 212.961 302.82 L 214.11 300.694 L 219.089 306.295 L 222.538 305.138 L 223.117 301.274 L 225.607 303.011 L 225.987 299.147 L 222.919 297.219 L 223.109 285.057 L 220.429 282.931 L 217.559 286.795 L 209.513 279.846 Z"/>
      <path d="M230.782,289.073l-2.489-1.158l-1.34,1.737l2.68,4.253l0.19,4.054l5.749-3.475v-5.022l2.109-2.126l-2.109-1.547h-3.449L230.782,289.073L230.782,289.073z"/>
      <path d="M243.048,287.335l-4.028,3.285l0.959,4.054h2.49l1.149-2.126l1.729,1.737l1.729-0.19l4.599-3.864L243.048,287.335L243.048,287.335z"/>
      <path d="M242.659,280.956l-0.959,1.928l4.218,1.548l1.15-1.738L242.659,280.956L242.659,280.956z"/>
      <path d="M240.169,273.617l-4.218,0.579l-2.49,2.315l4.599,0.19l-1.34,3.475l0.959,1.548l1.34-0.19l3.259-5.212L240.169,273.617L240.169,273.617z"/>
      <path d="M247.456,272.27l-2.299,0.77l0.38,3.086l3.83,2.507l0.19,1.927l-1.149,1.159l0.579,3.864l14.755,4.823l4.028,1.349l4.028-3.475l-4.789-3.864l-4.409,1.158l-6.128-0.579l-2.299-2.316l-0.579-6.371l-3.83-1.928L247.456,272.27L247.456,272.27z"/>
      <path d="M259.523,292.357l-4.218-0.39l-4.979,1.927l-2.68,3.666l0.769,10.043l8.238,0.39l7.857,3.864l5.559,6.371l4.218-0.19l-1.15,5.981l-3.829,6.371l-4.218,1.926l-3.069-0.578l-1.53-1.348l-2.299,3.086l0.959,3.086l3.259,0.189l4.028-1.928l3.449,8.886l8.626,5.603l5.938-7.529l-4.979-8.108l2.878-3.284l4.028,6.758l7.278-6.371l-1.339-2.896l-4.98,1.548l-3.448-9.466l3.259-5.403l-6.518-6.949l-3.639,2.507l-3.449-7.529l-7.277,0.968l-1.919-9.076l-5.938,4.055l-0.579,5.021h-3.259l0.38-4.443L259.523,292.357L259.523,292.357z"/>
      <path d="M262.021,274.006v1.738l-4.218,0.968l1.149,1.927l4.789,1.928l5.368,0.58l3.831,2.705l3.829-2.127l-2.681-2.705h3.449l2.109-2.316l5.178-0.77v-1.158l-2.878-1.928l0.379-2.127l8.048,1.348l11.886-4.633l-4.41-1.348l1.15-1.547h9.197l1.531-1.547l-18.593-6.569l-4.41-1.547l-4.789,3.476l-5.368-4.443l-2.878-0.19l-0.579,3.675l-3.638-3.285l-4.218,1.349l0.769,2.126l6.328,1.35l-0.38,3.086l3.449,2.125l8.438-2.125l0.19,2.896l-6.898,3.285l-4.218-3.285l-3.83,0.389l3.83,5.411l-1.919,0.969l-2.878-2.508l-2.109,1.348l1.919,3.666h3.259l-0.769,3.475l-2.68-0.389l-3.449-3.674L262.021,274.006L262.021,274.006z"/>
      <path d="M244.941,327.159l-3.657,4.599l-0.225,5.065l3.198-1.841h3.881l2.74,2.533l2.515-2.076L244.941,327.159L244.941,327.159z"/>
      <path d="M289.466,386.977l-9.136,8.748l0.916,2.074l11.186,4.141l1.599-2.758l-0.916-4.599l-3.657,0.458l-2.057-2.299l3.423-3.449L289.466,386.977L289.466,386.977z"/>
      <path class="mainland" d="M 151.939 280.884 L 153.659 283.486 L 154.523 286.961 L 158.828 288.042 L 161.845 284.792 L 164.43 286.098 C 164.43 286.098 161.621 309.643 160.377 320.052 C 160.024 323.006 159.796 324.902 159.795 324.902 L 157.215 332.938 L 154.933 336.031 L 152.021 338.357 L 150.461 341.973 L 150.164 344.829 L 150.506 346.564 L 152.252 349.084 L 153.257 351.887 L 154.213 357.71 L 153.532 362.484 L 155.088 369.156 L 155.042 371.097 L 152.986 373.892 L 150.866 375.861 L 143.944 374.893 L 142.933 370.751 L 137.331 365.547 L 137.331 361.208 L 138.196 357.301 L 137.763 355.133 L 135.611 352.962 L 135.179 349.487 L 140.781 345.579 L 137.332 326.926 L 132.595 326.709 L 128.29 321.064 L 151.939 280.884 Z" style="transform-box: fill-box; transform-origin: 50% 50%;" transform="matrix(1, 0, 0, 1, 0.000007629394, 0)"/>
      <path class="mainland" d="M 254.927 399.033 L 252.678 396.952 L 248.877 394.268 L 246.574 391.691 L 242.281 377.158 L 242.654 368.909 L 248.039 368.693 L 250.623 363.705 L 251.056 356.116 L 257.945 342.666 L 266.554 345.7 L 271.075 351.993 L 269.138 358.285 L 272.587 360.239 L 280.981 354.593 L 283.349 369.997 L 291.103 379.324 L 291.319 384.095 L 282.71 386.265 L 278.622 390.603 L 270.013 388.65 L 265.708 388.433 L 258.17 394.293 L 262.691 393.212 L 268.292 392.132 L 269.373 393.437 L 267.869 398.208 L 268.085 402.548 L 270.67 404.284 L 273.254 403.636 L 274.55 401.683 L 276.27 401.683 L 273.469 406.888 L 268.084 407.103 L 265.716 410.579 L 262.699 410.579 L 261.835 407.976 L 266.14 403.638 L 260.971 405.375 L 260.738 398.001 L 259.251 397.138 L 254.927 399.033 Z"/>
      <path class="mainland" d="M 152.312 376.05 L 154.234 374.223 L 156.291 371.248 L 156.323 368.777 L 154.845 362.401 L 155.402 357.428 L 154.552 351.844 L 153.552 348.74 L 151.774 346.272 L 151.517 344.85 L 151.814 342.108 L 152.988 338.951 L 155.748 336.7 L 158.436 333.087 L 161.109 324.882 L 165.423 286.366 L 172.744 287.013 L 177.913 284.843 L 178.777 292 L 181.794 292 L 181.794 288.966 L 184.811 289.182 L 192.349 298.077 L 197.302 301.112 L 194.718 305.235 L 195.799 306.316 L 205.472 308.269 L 205.688 312.609 L 202.384 319.674 L 196.857 326.153 L 194.671 332.196 L 195.668 336.216 L 197.093 338.351 L 196.747 341.84 L 194.253 346.137 L 188.411 349.166 L 185.39 352.679 L 185.014 356.76 L 186.681 360.494 L 187.914 363.56 L 190.092 368.277 L 192.249 373.78 L 192.661 383.016 L 152.312 376.05 Z"/>
      <path class="mainland" d="M 193.363 383.008 L 193.138 373.151 L 186.068 356.579 L 186.329 353.464 L 189.291 349.963 L 195.025 347.119 L 197.668 342.009 L 198 338.361 L 196.448 335.957 L 195.547 332.226 L 197.517 326.627 L 203.052 319.91 L 206.39 312.601 L 208.975 313.034 L 209.623 306.524 L 213.712 305.444 L 216.729 310 L 223.186 313.034 L 226.419 313.681 L 228.571 311.079 L 228.787 306.955 L 232.66 304.568 L 233.948 308.044 L 230.499 314.121 L 230.931 317.154 L 232.868 314.121 L 236.741 310.646 L 236.957 306.09 L 234.805 302.614 L 235.453 299.797 L 240.622 297.194 L 242.991 298.932 L 243.423 314.12 L 247.08 310.87 L 249.232 312.175 L 246.215 317.379 L 250.088 318.244 L 255.69 309.565 L 260.427 314.551 L 258.491 323.446 L 253.754 326.049 L 249.233 323.88 L 241.056 325.616 L 241.92 328.434 L 239.768 331.91 L 233.095 333.431 L 225.557 339.291 L 218.884 348.187 L 217.216 351.004 L 214.452 355.281 L 212.472 359.682 L 212.387 366.324 L 212.603 368.789 L 214.207 371.234 L 215.543 372.045 L 216.138 373.04 L 215.832 374.533 L 214.935 375.9 L 214.182 375.982 L 212.643 375.525 L 211.229 376.474 L 209.415 379.638 L 204.694 384.807 L 193.363 383.008 Z"/>
      <path class="mainland" d="M 232.087 389.318 L 216.652 361.101 L 220.982 354.507 L 222.104 357.995 L 228.345 364.288 L 238.251 368.627 L 236.099 378.602 L 235.883 381.42 L 238.468 383.156 L 241.917 378.601 L 245.413 390.929 L 239.048 389.261 L 232.087 389.318 Z"/>
      <path d="M 216.352 362.507 L 213.028 363.339 L 213.096 366.08 L 213.429 368.661 L 214.846 370.845 L 216.249 371.576 L 217.012 372.826 L 216.602 374.846 L 215.395 376.639 L 214.248 376.851 L 212.884 376.39 L 211.865 376.925 L 210.009 380.26 L 207.734 382.741 L 205.68 385.019 L 213.532 390.513 L 218.188 390.846 L 223.321 394.99 L 225.032 398.786 L 228.447 402.052 L 222.575 410.77 L 223.735 412.388 L 235.713 408.621 L 236.304 407.685 L 243.427 402.66 L 253.683 402.588 L 254.043 399.847 L 251.711 397.758 L 247.417 394.72 L 244.962 392.016 L 238.732 390.371 L 231.352 390.616 L 216.352 362.507 Z"/>
    </g>
    <path id="cd" d="M 437.26 546.569 L 446.935 546.442 L 448.743 549.009 L 448.674 550.902 L 449.339 551.507 L 453.765 551.507 L 455.036 549.008 L 456.844 549.008 L 457.578 549.75 L 460.057 549.681 L 460.792 558.395 L 465.079 558.534 L 471.6 560.548 L 473.328 560.942 L 473.808 559.54 L 473.224 556.401 L 474.503 554.544 L 475.717 552.679 L 477.494 551.703 L 478.23 551.221 L 478.591 550.347 L 478.773 547.733 L 478.24 546.033 L 477.615 543.905 L 477.789 541.743 L 478.38 539.151 L 478.608 537.117 L 479.17 533.953 L 480.919 531.509 L 481.7 528.871 L 483.566 525.85 L 483.634 524.572 L 482.76 524.095 L 482.795 521.623 L 481.733 521.528 L 480.661 520.162 L 463.071 519.367 L 459.845 522.505 L 454.565 519.03 L 452.707 520.171 L 452.024 525.783 L 445.894 526.617 L 445.676 527.745 L 443.386 529.009 L 440.73 528.743 L 433.942 529.524 L 431.158 528.329 L 431.471 531.43 L 434.378 534.315 L 435.816 537.813 L 436.88 542.273 L 437.26 546.569 Z"/>
    <path id="ch" d="M423.787,402.82l-3.771,4.011l0.078,0.405l1.547-0.483l1.393,1.937l2.352-0.83l1.625,1.263l0.667-0.38l2.005-3.146l-0.511-0.484l-1.979-0.051l-0.959-1.963L423.787,402.82L423.787,402.82z" class="mountain&quot; id=&quot;ch"/>
    <path id="ci" d="M 388.484 521.562 L 392.181 518.945 L 396.781 518.139 L 401.474 519.152 L 406.217 517.838 L 409.246 515.713 L 413.441 515.179 L 413.63 509.948 L 415.864 506.725 L 415.935 500.703 L 413.312 500.74 L 410.58 498.638 L 409.888 499.457 L 408.311 499.514 L 404.132 498.463 L 401.836 498.21 L 400.395 503.973 L 395.407 500.275 L 393.735 505.191 L 388.993 505.261 L 387.092 505.565 L 387.29 509.99 L 386.288 510.396 L 385.085 512.611 L 388.18 516.231 L 388.484 521.562 Z"/>
    <g id="cl">
      <path d="M261.391,683.51l-3.691,8.109l6.371,0.674l0.112-5.403L261.391,683.51L261.391,683.51z"/>
      <path d="M 259.668 682.887 L 257.362 685.307 L 257.025 688.911 L 251.657 685.868 L 245.952 677.647 L 244.275 674.715 L 246.626 671.672 L 246.401 667.842 L 243.721 666.718 L 241.595 665.146 L 242.044 663.002 L 244.836 662.215 L 245.398 649.828 L 241.042 647.348 L 238.198 582.871 L 240.248 579.778 L 245.443 592.716 L 245.754 594.873 L 245.346 596.99 L 243.701 599.654 L 241.768 614.829 L 244.719 626.724 L 243.851 635.731 L 247.752 651.029 L 249.703 662.295 L 250.827 677.706 L 255.531 682.962 L 258.924 682.483 L 259.668 682.887 Z"/>
      <path d="M241.717,649.833l-1.115,1.686l0.562,2.932l1.115,0.112l0.562-3.718L241.717,649.833L241.717,649.833z"/>
    </g>
    <path id="cm" d="M 428.031 519.428 L 430.814 521.989 L 430.615 525.948 L 431.271 527.548 L 434.042 528.792 L 437.543 528.339 L 440.68 528.027 L 443.34 528.228 L 444.919 527.32 L 445.222 525.936 L 451.399 525.157 L 452.027 519.612 L 454.275 518.303 L 448.269 512.771 L 444.685 512.33 L 442.994 509.111 L 441.403 508.256 L 441.403 506.501 L 443.244 505.299 L 443.348 499.836 L 441.888 499.672 L 441.864 502.542 L 435.45 514.514 L 431.525 514.713 L 428.837 516.563 L 428.031 519.428 Z"/>
    <g id="cn">
      <path d="M 671.547 467.905 L 669.483 468.484 L 667.996 470.317 L 669.232 472.728 L 671.046 472.891 L 673.112 471.059 L 673.604 468.648 L 671.547 467.905 Z"/>
      <path class="mainland" d="M 647.829 435.268 L 649.662 431.509 L 651.398 425.207 L 648.907 425.705 L 644.956 429.126 L 641.669 430.027 L 641.357 432.758 L 642.525 435.7 L 643.81 442.241 L 641.342 444.546 L 645.353 446.92 L 646.242 452.109 L 646.142 461.284 L 647.159 463.02 L 648.807 465.229 L 654.161 463.494 L 658.301 463.607 L 663.097 469.008 L 666.635 469.558 L 671.672 465.862 L 673.159 463.158 L 674.074 461.476 L 673.434 457.85 L 670.435 454.613 L 666.969 451.362 L 666 446.398 L 662.708 442.565 L 660.765 440.939 L 654.458 440.404 L 648.895 439.146 L 647.829 435.268 Z" style=""/>
    </g>
    <path id="co" d="M 234.326 498.251 L 232.545 498.069 L 220.772 507.776 L 219.527 511.19 L 217.919 511.372 L 218.636 518.918 L 214.531 528.988 L 218.991 532.764 L 224.705 533.127 L 228.629 538.884 L 231.809 534.425 L 232.389 530.373 L 236.995 527.745 L 241.455 527.382 L 240.919 515.694 L 230.926 512.462 L 228.61 506.169 L 234.326 498.251 Z"/>
    <path id="cr" d="M202.905,502.745l1.202,2.352l0.977,1.297l-1.314,3.898l-2.507-1.764l-4.097-3.752v-2.48L202.905,502.745L202.905,502.745z"/>
    <path id="cu" d="M205.904,469.846v1.1l4.599,0.086l2.169-1.263l0.337,0.926l4.512,1.098l4.011,3.622l-0.917,1.262l0.165,1.436l3.345,0.839l3.345-1.514l1.504-1.513l-2.169-1.098l-11.194-6.569l-3.924-0.424L205.904,469.846L205.904,469.846z"/>
    <g id="cv">
      <path d="M350.01,490.264l-1.642,0.942l1.175,0.941l1.409-0.708L350.01,490.264L350.01,490.264z"/>
      <path d="M354.046,492.165l-1.071,0.951l0.762,1.409l1.832-0.821L354.046,492.165L354.046,492.165z"/>
      <path d="M351.704,494.836l-1.375,0.821l1.479,1.979l1.168-0.612L351.704,494.836L351.704,494.836z"/>
    </g>
    <path id="cy" d="M484.555,437.794l1.062,0.771l-3.294,3.119l-1.573-0.052l-1.167-0.821l0.156-1.529l2.386-0.155L484.555,437.794L484.555,437.794z"/>
    <g id="dk">
      <path d="M427.123,370.076l-3.586,3.968l-0.13,2.584l1.635,4.263l2.559-0.484l-0.319-3.483l1.764-1.971l-0.034-1.548l-1.245-3.223L427.123,370.076L427.123,370.076z"/>
      <path d="M428.979,377.354l-1.062,0.229v1.583l1.128,0.875l0.997-0.25l-0.243-1.503L428.979,377.354z"/>
      <path d="M432.306,375.848l-0.949,0.23l-1.056,0.968l0.448,1.954l1.292,0.507l-1.334,0.535l-0.255,0.685h2.005l0.602-1.099l-0.768-0.378l0.25-0.962l0.916-1.205l-0.25-1.042L432.306,375.848z"/>
    </g>
    <path id="dz" d="M424.625,435.764l-3.526-1.186l-14.677,2.758l-3.198,2.429l1.953,10.088l-5.835,0.233l-3.509,5.646l-8.359,2.005l0.025,4.105l27.532,21.048l4.692,0.398l15.654-12.231l-1.565-1.971l-2.938-0.398l-1.764-2.955V453.5l-1.177-1.184l0.199-3.155l-3.13-3.155l-0.389-3.354l1.366-0.986l-0.59-3.553L424.625,435.764L424.625,435.764z"/>
    <g id="ec">
      <path class="mainland" d="M213.986,529.43l-4.088,2.541l-0.294,3.771l-0.821,1.234l2.576,2.473l-1.115,1.219l0.259,3.113l4.607,1.098l6.976-8.256l-0.017-2.878l-3.345-0.216L213.986,529.43L213.986,529.43z"/>
      <path d="M183.533,531.443l-0.536,2.378l-0.994,1.002l0.683,1.228l1.754-0.69l0.838-1.461l-0.536-1.537L183.533,531.443L183.533,531.443z"/>
    </g>
    <path id="eg" d="M 466.16 449.222 L 468.468 449.284 L 472.963 450.528 L 475.098 450.589 L 477.744 448.376 L 478.978 448.376 L 481.227 449.621 L 484.072 449.621 L 484.582 449.586 L 486.38 454.756 L 486.89 456.424 L 487.367 458.922 L 486.517 459.544 L 485.056 458.81 L 483.37 453.312 L 481.849 453.201 L 481.738 455.068 L 482.75 458.3 L 490.85 468.327 L 491.023 472.632 L 488.664 475.355 L 471.928 475.073 L 470.457 474.703 L 466.477 473.818 L 466.16 449.222 Z"/>
    <path id="er" d="M 496.224 493.859 L 496.008 488.766 L 499.431 484.774 L 500.357 485.483 L 502.043 491.12 L 509.775 497.349 L 511.394 499.084 L 512.554 502.193 L 511.808 502.847 L 508.271 502.915 L 508.664 498.951 L 502.742 493.86 L 496.224 493.859 Z"/>
    <g id="cn">
      <path d="M367.834,443.481l-0.934,1.185l0.934,1.185l1.408-0.709L367.834,443.481L367.834,443.481z"/>
      <path d="M374.265,458.444l-1.513,0.873l0.7,0.709L374.265,458.444L374.265,458.444z"/>
      <path d="M369.009,458.608l-1.875,0.476l0.935,1.418h1.407L369.009,458.608L369.009,458.608z"/>
      <path d="M364.549,457.191l-1.176,1.184l1.643,1.418l0.935-2.126L364.549,457.191L364.549,457.191z"/>
    </g>
    <path id="et" d="M489.982,508.606l6.292-14.005l6.25,0.035l5.541,4.814l-0.39,3.968h4.296l0.44,2.386l6.95,4.157l4.286,0.217l-8.15,8.756l-11.194,3.449h-2.773l-4.944-4.219l-1.953-0.82l-3.786-5.576l-2.499,0.035l-0.294-2.559L489.982,508.606L489.982,508.606z"/>
    <path id="fi" d="M453.072,340.202l1.79,0.786l1.104,2.074l-1.104,1.436l-5.55,6.068l-0.952,3.199l1.271,4.633l4.278,3.199l5.706-2.715l4.598-0.64l4.279-6.872l-3.173-7.512l-3.018-7.192l0.477-4.633l-1.901-0.32l-0.492-3.38l-2.559-4.175l-2.836,1.962l-1.114,4.556l-3.008-1.807l-4.185-1.021l-0.934,1.09l1.607,1.453l2.931-0.053l2.359,3.812L453.072,340.202L453.072,340.202z"/>
    <g id="fk">
      <path d="M281.194,678.393l-2.273-0.25l-2.265,1.521l1.642,1.781L281.194,678.393L281.194,678.393z"/>
      <path d="M283.459,677.252l-0.752,2.411l-2.144,1.901l0.13,0.631l3.655-1.4l1.513-1.901L283.459,677.252L283.459,677.252z"/>
    </g>
    <g id="fr">
      <path d="M 427.456 417.312 L 425.769 419.007 L 425.615 420.545 L 426.989 421.392 L 427.525 421.316 L 427.828 419.076 L 427.456 417.312 Z" style="fill: rgb(10, 19, 99);"/>
      <path class="mainland" d="M 422.138 411.068 L 422.912 409.084 L 421.497 407.096 L 420.619 407.379 L 418.157 410.307 L 414.079 410.775 L 411.436 411.32 L 409.089 411.905 L 407.088 412.115 L 406.288 411.841 L 403.066 416.054 L 408.069 418.499 L 413.529 418.574 L 415.632 416.766 L 418.841 416.844 L 419.736 417.692 L 422.944 417.459 L 424.591 415.297 L 422.269 412.384 L 422.138 411.068 Z"/>
    </g>
    <g id="gl">
      <path class="mainland" d="M292.587,282.398l-1.176,1.877l2.118,2.117l-0.942,2.118l3.06,3.994l3.761-1.176l4.936-0.466l5.644,6.111l3.761,10.104l-3.051,6.345l4.227-0.708l2.354,1.409l0.232,3.06l-5.168,0.233l2.818,2.817l3.526,0.709l-7.754,10.339l-0.942,6.345l1.643,5.169l-1.176,3.06l2.118,6.578l3.993,4.469l1.176-0.232l2.584-0.709l0.233,3.76l1.642,2.352l3.052-0.234l2.353-8.695l7.053-8.697l10.581-4.227l6.578-8.229l3.05,1.408h6.345l5.17-5.168l6.346-2.584l0.708-3.994l-3.993-3.527l-3.526-1.175l-1.885-4.937l4.469-2.584l7.054,3.76l2.353-2.584l-3.761-2.117l7.996-10.813l-1.409-4.702l-3.761-0.232l1.408-4.228l4.703-2.118l9.637-8.461l-2.816-3.053l-10.814,0.941l-5.645,5.646l3.295-7.287l-3.762-0.942l-2.117,3.761l-3.051-2.585l-8.464,0.941l2.353-3.76l13.865-0.467l-3.527-4.702l-15.04-2.817l-6.11,0.941l0.233,3.061l-6.345-2.118l0.232-2.118l-4.47,0.941l-0.942,2.353l4.703,1.642l-4.936,3.527l-3.527-3.994l-4.936-1.408l-0.709,3.76h-4.937l-1.885-3.994l-7.754-1.176l-4.228,2.117l-0.233,2.818l-5.402-0.709l-3.294,1.409l0.234,3.293v1.644l-6.111,1.176l-2.818-1.877l-1.885,3.052l2.819,3.06l5.878-0.709l0.467,1.885l-4.469,2.118L292.587,282.398L292.587,282.398z"/>
      <path d="M311.396,319.066l1.409,2.119l-0.708,2.584h-1.409l-1.885-2.119l0.467-1.643L311.396,319.066L311.396,319.066z"/>
      <path d="M370.159,313.189l3.993,1.176l-0.234,3.293l-4.227-2.118l-0.942-1.176L370.159,313.189L370.159,313.189z"/>
    </g>
    <path id="gn" d="M 369.77 505.304 L 372.399 509.35 L 374.839 512.196 L 378.193 515.745 L 382.355 519.345 L 387.688 521.494 L 387.602 516.736 L 383.988 512.755 L 385.668 509.921 L 386.498 509.455 L 386.437 505.462 L 384.787 500.725 L 379.789 501.078 L 380.042 498.904 L 377.269 495.116 L 376.58 494.671 L 373.584 490.309 L 371.188 489.361 L 369.479 489.678 L 366.674 491.64 L 364.909 493.206 L 364.557 494.027 L 365.383 494.293 L 366.651 496.669 L 366.989 499.257 L 368.114 501.879 L 369.77 505.304 Z"/>
    <g id="gq">
      <path d="M427.184,522.134l-0.396,1.703l1.191,0.648l1.143-0.855l-0.397-1.755L427.184,522.134L427.184,522.134z"/>
    </g>
    <g id="gr">
      <path class="mainland" d="M 453.004 427.213 L 452.908 428.363 L 456.911 430.377 L 458.822 431.111 L 457.819 432.166 L 455.589 432.393 L 455.27 433.403 L 456.041 435.141 L 458.539 436.471 L 459.629 436.567 L 459.767 433.586 L 461.402 431.614 L 456.942 426.342 L 457.531 424.553 L 458.577 424.51 L 460.168 425.789 L 461.17 425.288 L 461.489 423.498 L 465.221 424.032 L 466.355 420.793 L 464.402 422.168 L 458.671 422.028 L 454.945 423.957 L 453.371 422.82 L 450.846 422.884 L 451.795 425.129 L 453.004 427.213 Z"/>
      <path d="M461.69,438.442l1.408,0.043l0.589,0.873h2.05l1.363-0.501l0.459,0.553l-0.907,1.192l-4.002,0.139l-0.728-0.959l-0.77-0.458L461.69,438.442L461.69,438.442z"/>
    </g>
    <path id="gt" d="M 183.456 491.11 L 188.582 494.862 L 193.523 497.218 L 193.613 494.044 L 191.248 492.253 L 193.848 488.499 L 192.87 487.108 L 191.106 487.046 L 191.106 483.285 L 189.784 482.481 L 185.782 483.673 L 187.312 487.199 L 183.456 491.11 Z"/>
    <path id="hn" d="M 194.408 488.742 L 202.395 488.439 L 204.764 491.256 L 203.286 490.918 L 200.442 491.039 L 196.725 494.531 L 195.135 498.067 L 194.089 497.512 L 194.08 493.64 L 192.034 492.181 L 194.408 488.742 Z"/>
    <path id="hr" d="M 455.63 400.234 L 455.584 398.196 L 454.904 398.562 L 453.373 397.731 L 452.396 397.737 L 450.415 398.471 L 447.778 397.883 L 443.193 394.577 L 439.361 392.818 L 436.815 393.296 L 433.53 395.329 L 433.607 395.825 L 436.899 399.102 L 436.633 401.556 L 433.044 403.248 L 430.102 403.21 L 429.282 404.742 L 430.461 405.751 L 432.28 405.221 L 434.062 405.29 L 436.006 407.013 L 436.891 409.592 L 437.842 410.326 L 438.983 411.007 L 439.98 412.287 L 440.667 414.382 L 441.031 415.915 L 441.483 416.424 L 447.14 418.768 L 449.161 420.589 L 449.205 418.798 L 451.535 416.312 L 454.457 414.523 L 457.002 413.629 L 456.27 413.071 L 451.835 406.613 L 456.949 402.355 L 457.176 401.247 L 455.63 400.234 Z"/>
    <path id="ht" d="M 232.101 476.555 L 235.075 476.866 L 238.139 477.955 L 242.7 480.9 L 242.385 482.419 L 239.875 481.94 L 236.997 482.667 L 235.99 483.8 L 235.225 482.418 L 234.59 482.409 L 230.961 482.243 L 230.347 483.169 L 229.284 483.092 L 228.904 481.095 L 232.56 480.791 L 232.335 478.718 L 230.658 478.027 L 232.101 476.555 Z"/>
    <g id="id">
      <path d="M639.517,513.628l-0.241,1.971l5.869,9.862h1.711l12.23,20.461l4.894,0.492l2.445-7.148l-3.916-2.464l-0.734-3.941L639.517,513.628L639.517,513.628z"/>
      <path d="M697.475,540.891l1.954,2.396l-1.271,3.596v0.684h2.887l1.021-8.989l0.934,0.26l1.694,8.212l1.615,0.434l1.53-3.512l-1.53-5.308l-1.271-2.31l3.993-2.911l-0.935-1.288l-3.819,2.48h-1.021l-1.866-2.74l0.597-1.201l3.146-1.539l4.754,1.453l1.444-0.089l3.568-3.335l-1.442-1.451l-3.312,2.565h-2.127l-3.224-1.538l-2.29,0.086l-2.55,4.106l-1.616,7.105L697.475,540.891L697.475,540.891z"/>
      <path d="M718.791,524.805l-1.616,3.935l2.549,3.337h0.849l1.105-2.223l0.597-0.77l-1.105-1.201l-1.617-0.597L718.791,524.805L718.791,524.805z"/>
      <path d="M723.805,537.729l-3.482,0.77l-1.021,1.115l0.847,1.453l2.291-0.855l1.442-0.855l2.126,1.712l0.935-0.771l-1.693-2.057L723.805,537.729L723.805,537.729z"/>
      <path d="M666.045,548.854l-2.377,1.625l0.51,1.364l7.564,1.712l3.82,0.684l1.615,1.712l4.331,0.345l2.04,1.711l1.867-0.432l1.702-1.539l-3.146-1.452l-2.715-2.308l-7.053-1.713L666.045,548.854L666.045,548.854z"/>
      <path d="M690.768,556.295l-1.865,1.029l1.104,1.201l2.715-1.027L690.768,556.295L690.768,556.295z"/>
      <path d="M693.991,555.526l0.338,1.625l1.954,0.51l0.761-0.942l-0.848-1.288L693.991,555.526L693.991,555.526z"/>
      <path d="M698.668,559.805l-2.377,0.347l2.126,1.798h1.694L698.668,559.805L698.668,559.805z"/>
      <path d="M699.342,556.979l-0.511,1.027l3.821,0.596l2.974-1.711l-1.694-0.511l-2.715,0.771l-1.021-0.856L699.342,556.979L699.342,556.979z"/>
      <path d="M711.833,557.583l-4.416,3.683l0.423,0.942l1.866-0.345l2.205-2.059l4.331-0.597l-0.848-1.452L711.833,557.583L711.833,557.583z"/>
      <path d="M 693.328 511.872 L 692.227 509.861 L 688.14 516.695 L 678.733 523.893 L 678.932 527.042 L 674.62 526.887 L 673.047 527.32 L 675.986 538.66 L 680.384 539.153 L 686.253 541.375 L 686.253 543.597 L 688.941 543.104 L 692.857 537.684 L 692.857 533.249 L 695.061 528.814 L 697.506 529.305 L 694.568 523.142 L 694.119 519.174 L 698.621 515.649 L 693.328 511.872 Z"/>
    </g>
    <path id="iq" d="M 502.793 433.637 L 501.445 440.301 L 495.86 444.951 L 496.214 447.146 L 501.669 447.517 L 510.357 454.587 L 515.214 454.449 L 519.329 455.254 L 519.557 453.887 L 519.943 452.002 L 515.128 445.597 L 512.846 445.458 L 509.813 441.56 L 510.417 438.692 L 511.343 438.571 L 511.662 437.3 L 507.53 432.952 L 502.793 433.637 Z"/>
    <path id="ir" d="M507.409,427.516l-1.057,1.098l0.104,1.738l1.314,1.842l4.658,5.101l-0.709,2.04h-0.812l-0.406,2.04l2.637,3.371l2.43,0.207l4.865,6.732l2.732,0.208l2.126,1.529l0.104,3.062l8.411,4.9h3.139l1.927-1.634l2.43-0.104l1.418,3.268l9.085,1.262l0.27-3.337l3.007-1.089l0.139-1.193l-2.395-3.268l-5.334-4.287l2.801-2.55l-0.198-1.124l-3.511-0.544l-1.486-11.843l-0.173-2.723l-9.518-3.641l-4.218,0.951l-2.36,2.896l-2.092-0.139l-0.604,0.511l-4.66-0.303l-5.878-4.288l-2.188-2.394l-1.003,0.24l-1.808,2.066L507.409,427.516L507.409,427.516z"/>
    <path id="is" d="M366.261,340.521l-1.693-0.959l-2.283,1.443l-1.962,1.814l0.052,1.013l2.541,0.319l-0.156,1.815l-0.898,0.908l0.217,0.588l2.541,0.164v2.938l3.656,0.641l2.17,1.229l2.437,0.104l4.186-2.083l3.231-4.271l0.053-2.887l-1.963-1.66l-1.642-1.392l-0.743,0.536l-1.115,1.443l-1.271-0.164l-1.271-1.393l-1.642,0.156l-2.386,1.979l-1.437,1.547l-0.795-0.69l-0.053-1.712l0.795-0.536L366.261,340.521L366.261,340.521z"/>
    <path id="jm" d="M221.533,480.798l-3.008,0.761v0.84l1.755,1.011h1.841l1.167-1.349L221.533,480.798L221.533,480.798z"/>
    <path id="jo" d="M 489.171 446.974 L 489.102 445.084 L 486.276 444.711 L 485.621 447.489 L 485.174 449.071 L 486.445 453.145 L 487.251 455.8 L 487.863 458.934 L 489.822 459.035 L 493.3 457.854 L 494.639 454.834 L 494.34 452.497 L 494.434 451.244 L 492.905 449.68 L 495.644 447.408 L 495.248 445.299 L 494.496 445.472 L 492.314 446.969 L 489.171 446.974 Z"/>
    <g id="jp">
      <path d="M709.317,426.193l-1.41,1.418l0.579,1.996l1.236,0.086l0.83,4.332l0.993,1.08l1.738-1.582l0.151-4.773l-2-2.125L709.317,426.193L709.317,426.193z"/>
      <path d="M716.688,422.188l-2.659,2.156l-0.591,2.719l1.812,1.25l2.625-2.75l0.37-3.062L716.688,422.188z"/>
      <path d="M713.613,418.033l-4.219,4.832v2.322l2.604-0.312l4.085-3.592l2.731-0.502l0.663,0.779l0.015,2.377l0.688,1.25h1.255l1.763-2.158l0.743-2.836l3.552-0.086l3.476-4.166l-1.814-6.916l-0.83-3.664l1.815-1.496l-4.133-6.241l-0.944-0.744l-1.875,0.744l-0.481,2.584v2.083l0.994,1.167l0.328,5.498l-2.56,3.164l-1.485-0.917l-1.159,2.584l-0.251,2.412l0.909,1.418l-0.579,1.08l-1.902-1.582h-1.322l-1.157,0.666L713.613,418.033L713.613,418.033z"/>
      <path d="M720.729,380.396l-1.321,1.168l0.665,2.498l1.158,1.166l-0.086,3.83l-1.487,0.578l-1.158,2.584l3.388,4.659l2.23-0.752l0.415-1.167l-2.396-2.161l1.487-1.919l1.572,0.25l3.43,2.305l0.37-2.584l1.63-2.979l2.281-2.312l-2.469-1.125l-0.944-1.801l-1.236,0.83l-1.071,1.331l-2.316-0.501l-2.396-1.582L720.729,380.396L720.729,380.396z"/>
      <path d="M733.201,377.812l-2.317,3.25l0.164,1.582l1.158-0.502l2.723-3.414L733.201,377.812L733.201,377.812z"/>
      <path d="M736.261,373.066l-0.829,2.248l0.086,1.496l1.409-0.918l1.322-2.662v-0.994L736.261,373.066L736.261,373.066z"/>
      <path d="M 649.45 374.496 L 648.04 375.763 L 645.387 378.58 L 645.886 378.548 L 648.881 376.451 L 652.893 377.982 L 654.472 382.262 L 656.913 384.801 L 654.575 388.298 L 654.482 390.897 L 654.021 395.575 L 649.015 400.755 L 641.512 405.274 L 642.175 407.817 L 642.746 407.808 L 645.979 409.71 L 646.999 412.345 L 648.745 413.827 L 650.793 413.365 L 653.199 413.792 L 654.261 412.853 L 654.925 411.563 L 652.605 410.556 L 649.19 407.582 L 649.068 405.397 L 652.428 403.531 L 655.583 400.554 L 658.472 396.526 L 659.96 393.285 L 660.303 390.603 L 663.39 384.279 L 666.138 384.271 L 666.458 384.736 L 666.414 382.833 L 662.064 380.716 L 660.191 379.057 L 658.17 375.526 L 649.45 374.496 Z" class="mountain&quot; d=&quot;M 649.45 374.496 L 648.04 375.763 L 645.387 378.58 L 645.886 378.548 L 648.881 376.451 L 652.893 377.982 L 654.472 382.262 L 656.913 384.801 L 654.575 388.298 L 654.482 390.897 L 654.021 395.575 L 649.015 400.755 L 641.512 405.274 L 642.175 407.817 L 642.746 407.808 L 645.979 409.71 L 646.999 412.345 L 648.745 413.827 L 650.793 413.365 L 653.199 413.792 L 654.261 412.853 L 654.925 411.563 L 652.605 410.556 L 649.19 407.582 L 649.068 405.397 L 652.428 403.531 L 655.583 400.554 L 658.472 396.526 L 659.96 393.285 L 660.303 390.603 L 663.39 384.279 L 666.138 384.271 L 666.458 384.736 L 666.414 382.833 L 662.064 380.716 L 660.191 379.057 L 658.17 375.526 L 649.45 374.496 Z"/>
    </g>
    <path id="ke" d="M 481.976 521.198 L 483.281 521.272 L 483.22 523.814 L 484.134 524.196 L 484.072 525.866 L 483.385 527.04 L 484.629 527.564 L 485.231 532.971 L 489.247 532.655 L 504.092 541.902 L 508.363 535.194 L 506.202 533.44 L 506.159 524.605 L 508.864 521.649 L 504.551 523.084 L 501.292 523.128 L 496.192 518.823 L 493.972 517.751 L 490.415 512.539 L 487.727 512.475 L 487.339 508.675 L 489.269 507.979 L 485.847 503.126 L 484.037 505.554 L 480.823 517.111 L 480.703 519.394 L 481.976 521.198 Z"/>
    <path id="kh" d="M 655.076 497.982 L 658.611 501.758 L 665.187 496.883 L 665.966 488.076 L 661.043 486.169 L 660.932 490.549 L 658.21 490.229 L 656.869 489.288 L 656.221 489.323 L 654.467 492.201 L 654.752 493.533 L 656.533 494.527 L 656.317 497.232 L 655.076 497.982 Z"/>
    <path id="kr" d="M 696.285 410.134 L 701.627 414.49 L 702.536 418.71 L 702.353 420.974 L 699.743 423.913 L 697.495 424.033 L 694.944 418.527 L 693.976 415.898 L 695.004 415.103 L 694.762 414.004 L 693.491 413.435 L 692.813 413.15 L 689.644 412.939 L 689.194 407.409 L 687.574 406.714 L 687.207 404.064 L 690.327 400.355 L 693.05 400.6 L 694.683 395.561 L 696.069 394.835 L 697.639 395.566 L 697.132 398.165 L 696.228 399.176 L 697.622 401.697 L 694.877 405.015 L 694.755 408.725 L 696.285 410.134 Z"/>
    <path id="lk" d="M603.264,505.399l0.217,2.351l0.216,1.712l-1.271,0.216l0.64,3.848l1.909,1.07l2.966-1.711l-0.847-4.054l0.216-1.495l-2.756-2.559L603.264,505.399L603.264,505.399z"/>
    <path id="ly" d="M 429.958 453.518 L 431.308 453.293 L 431.705 450.181 L 432.379 450.181 L 435.137 445.653 L 441.941 447.632 L 443.797 450.519 L 450.487 453.581 L 453.969 452.111 L 453.631 450.64 L 452.11 449.171 L 452.283 448.15 L 454.756 446.057 L 459.65 446.057 L 461.506 448.546 L 465.44 449.116 L 465.563 474.188 L 465.15 475.753 L 464.81 477.856 L 463.47 478.805 L 459.787 478.975 L 445.378 471.712 L 443.468 472.793 L 436.215 470.979 L 434.244 468.376 L 431.374 467.979 L 429.916 465.376 L 429.958 453.518 Z"/>
    <path id="ma" d="M402.505,439.903h-9.982l-1.954,4.339l-4.504,2.17l-3.719,10.062l-7.243,4.341l-10.174,16.761l9.983-0.199l0.389-4.927h2.541v-6.708h8.81l0.196-8.679l8.42-1.972l3.526-5.723l5.48-0.198L402.505,439.903L402.505,439.903z"/>
    <path id="mg" d="M526.988,561.474l-1.842,4.374l-3.154,5.566l-5.523,0.396l-2.369,2.783l0.397,8.488l-3.423,3.977l0.396,6.761l2.897,3.311l3.423-0.396l3.423-2.524l-0.787-3.977l7.894-13.657l-1.582-1.72l1.582-3.312l1.711,0.526l0.526-1.322l-1.582-6.76l-0.924-2.784L526.988,561.474L526.988,561.474z"/>
    <path id="ml" d="M 377.584 494.845 L 380.246 493.022 L 395.045 492.935 L 391.622 469.129 L 395.529 469.017 L 413.66 482.928 L 412.374 485.447 L 412.494 488.11 L 411.924 489.288 L 409.372 489.497 L 406.597 488.729 L 404.128 489.004 L 400.819 491.429 L 399.371 493.403 L 399.486 495.189 L 399.946 496.35 L 401.332 497.952 L 400.107 502.987 L 395.216 499.282 L 393.288 504.441 L 386.918 504.71 L 385.293 500.033 L 380.409 500.379 L 380.598 498.849 L 377.584 494.845 Z"/>
    <path id="mm" d="M645.533,501.596l-2.396-3.838l1.737-2.438l-1.642-3.018l-1.548-0.294l-0.294-5.064l-2.316-4.486l-0.675,1.071l-1.547,2.628l-1.937,0.294l-0.968-1.271l-0.484-3.414l-1.453-2.73l-5.913-5.576l1.453-0.959l0.27-4.037l2.16-3.631l0.935-9.032l3.129-2.136l0.103-3.293l1.877,0.622l2.956,4.279l-2.194,4.701l1.479,3.691l3.655,1.435l0.666,4.021l4.91,0.761l-1.357,2.343l-6.188,2.438l-0.674,3.993l4.547,5.844l0.189,3.12l-1.062,1.072l0.094,0.977l3.389,4.971l0.096,5.16L645.533,501.596L645.533,501.596z"/>
    <path id="mn" d="M 597.511 385.844 L 599.984 384.255 L 603.081 381.723 L 608.589 382.509 L 612.616 383.432 L 617.646 378.817 L 614.232 376.3 L 616.48 373.128 L 623.187 375.497 L 625.512 379.309 L 629.711 379.421 L 631.907 377.787 L 636.428 377.605 L 637.413 379.283 L 644.925 379.663 L 648.903 376.765 L 652.598 378.201 L 654.036 382.257 L 656.417 384.819 L 654.281 388.175 L 654.138 391.139 L 653.701 395.456 L 648.877 400.46 L 640.947 405.174 L 635.492 405.598 L 630.963 402.675 L 625.172 405.77 L 619.467 403.999 L 617.85 399.858 L 607.045 399.096 L 601.513 389.719 L 597.511 385.844 Z"/>
    <path id="mr" d="M364.998,478.266l1.885,2.463l-0.389,10.65l2.74-1.972l1.952-0.397l2.741,0.985l3.128,4.34l2.939-1.971l14.288-0.199l-3.526-23.866l3.786-0.018l-7.054-5.402l0.009,3.51l-8.93,0.01l-0.043,6.698l-2.567-0.009l-0.328,4.944L364.998,478.266L364.998,478.266z"/>
    <path id="mt" d="M440.815,438.339l-1.443,0.294l0.052,1.6l1.297,0.433l0.579-0.484L440.815,438.339L440.815,438.339z"/>
    <g id="mv">
      <path d="M582.396,516.386l0.26,2.256l1.442,0.527l0.26-1.989L582.396,516.386L582.396,516.386z"/>
      <path d="M584.238,521.156l-0.13,2.784l1.055,0.525l0.925-1.856L584.238,521.156L584.238,521.156z"/>
      <path d="M584.506,526.595l-0.925,0.925l1.056,0.925l1.313-0.925L584.506,526.595L584.506,526.595z"/>
    </g>
    <path id="mx" d="M 133.847 433.982 L 138.022 447.128 L 136.077 448.217 L 136.293 450.827 L 139.967 453.654 L 139.967 458.883 L 144.505 463.239 L 142.56 450.392 L 139.967 441.895 L 140.615 436.018 L 142.776 436.235 L 143.641 438.197 L 142.776 443.202 L 154.013 465.192 L 154.013 473.033 L 163.09 483.699 L 173.03 488.272 L 177.136 485.876 L 182.971 490.665 L 186.429 487.182 L 184.916 483.257 L 189.886 481.736 L 191.662 482.745 L 191.679 486.346 L 193.113 486.366 L 194.129 483.641 L 195.289 481.088 L 199.611 473.464 L 197.45 471.502 L 189.022 473.464 L 187.077 479.126 L 182.106 480 L 176.272 477.604 L 173.679 469.333 L 175.641 458.899 L 171.63 456.401 L 169.72 446.381 L 168.121 445.698 L 165.199 448.663 L 162.205 446.068 L 160.532 440.192 L 147.246 438.799 L 140.383 433.639 L 133.847 433.982 Z"/>
    <g id="my">
      <path class="mainland" d="M 648.359 511.796 L 650.095 515.694 L 650.486 520.758 L 652.81 524.362 L 657.906 527.445 L 659.736 527.685 L 660.37 526.366 L 660.158 524.456 L 658.317 519.978 L 655.62 514.247 L 655.393 515.25 L 652.143 515.104 L 649.809 511.75 L 648.359 511.796 Z"/>
    </g>
    <path id="mz" d="M 482.791 596.359 L 485.117 598.287 L 490.596 594.952 L 491.477 589.999 L 491.477 581.821 L 500.268 574.63 L 501.774 574.683 L 507.096 569.576 L 506.268 559.047 L 492.458 560.79 L 492.977 564.128 L 487.137 567.242 L 480.412 570.372 L 472.44 582.47 L 476.768 587.17 L 482.663 588.586 L 482.791 596.359 Z"/>
    <path id="na" d="M 444.221 603.863 L 447.118 604.071 L 448.82 605.791 L 452.857 605.843 L 453.841 594.381 L 453.841 586.878 L 456.426 586.358 L 457.412 578.491 L 457.046 576.928 L 451.307 574.846 L 435.177 574.846 L 435.592 579.426 L 440.968 587.344 L 440.034 591.406 L 440.087 593.542 L 444.221 603.863 Z"/>
    <path id="ne" d="M 413.396 500.17 L 415.6 500.117 L 417.588 497.136 L 420.924 496.539 L 424.477 498.709 L 432.057 498.925 L 437.918 496.539 L 440.122 494.645 L 440.286 492.156 L 444.374 488.033 L 445.454 478.929 L 442.766 473.293 L 435.886 471.616 L 419.963 484.029 L 417.707 483.812 L 416.738 492.429 L 404.62 493.552 L 402.946 495.308 L 409.475 497.24 L 413.396 500.17 Z"/>
    <path id="ng" d="M413.984,515.185l3.389,0.164l4.088,4.557l1.987,0.544l1.558-0.761l2.367-0.328l0.805-3.303l3.225-2.117l3.492-0.163l6.396-11.766l-0.104-2.653l-2.955-2.273l-5.913,2.603l-7.909-0.111l-3.77-2.386l-2.688,0.596l-1.4,2.438l-0.104,6.88l-2.256,3.198L413.984,515.185L413.984,515.185z"/>
    <path id="ni" d="M203.216,491.62l1.893,0.381l0.061,3.881l-2.204,6.293l-5.938-0.588l-1.323-3.034l1.764-3.682l3.345-3.112L203.216,491.62L203.216,491.62z"/>
    <path id="nl" d="M421.349,384.572l-3.915,1.928l0.829,0.752l0.088,1.928l-0.829-0.164l-0.917-1.426l-2.188,3.467l3.363,0.699l1.253,1.323l0.666,0.017l0.44-2.99l2.117-0.891L421.349,384.572L421.349,384.572z"/>
    <g id="no">
      <path class="mainland" d="M460.567,327.409l1.747-1.279l-0.157-1.435l-1.106-0.641l0.157-1.754h0.95v-0.96l-4.123-1.114l-6.181,0.64l-0.631,2.714l-1.428-0.477l-0.951-1.599l-3.017,0.155l-0.32,3.033l-1.426,0.641l-0.795-1.6l-6.345,5.109l1.271,1.436l-2.378,1.115l-5.393,10.701l-1.901,1.279l0.155,0.959l1.9,0.959l-0.475,2.074l-3.173-0.164l-0.952-1.115l-2.057,2.395l-1.271,0.959l-0.32,2.24l-1.105,0.64l-2.854,0.64l-1.426,4.479l0.951,7.348l1.106,3.354l1.271,1.279l2.853-0.156l4.124-3.994l1.581-2.713l0.478,3.992l2.697-4.789l0.154-13.424l2.195-1.383l0.657-7.408l6.655-9.586l3.173-1.115l1.427-1.755l4.754,1.115l2.377,1.435l0.796-3.992l3.968-2.396L460.567,327.409L460.567,327.409z"/>
    </g>
    <path id="np" d="M595.182,448.789l0.397,3.691l6.983,3.162l11.193,0.83l-0.423-2.705l-7.478-2.058l-6.346-3.777L595.182,448.789L595.182,448.789z"/>
    <g id="nz">
      <path d="M804.221,655.729l0.917,10.199l-1.228,4.634l-4.6,3.396l0.305,4.02v4.322l1.228,1.548l12.577-10.814v-2.472h-3.068l-4.298-14.521L804.221,655.729L804.221,655.729z"/>
      <path d="M795.023,677.979l2.455,4.633l-6.752,6.492l-0.613,3.396l-4.6,0.613l-7.667,7.104l-7.054-3.396l-0.613-2.474l12.879-5.558L795.023,677.979L795.023,677.979z"/>
    </g>
    <path id="om" d="M532.244,481.879l6.388-3.683l1.133-5.402l-1.399-0.804l0.579-5.792l1.219-0.709l1.306,2.049l7.771,4.062v2.258l-9.413,13.854l-4.331,0.147L532.244,481.879L532.244,481.879z"/>
    <path id="pa" d="M205.68,506.748l-1.262,3.941l4.167,1.079l2.584,0.512l0.441-3.052l2.775-1.4l2.463,1.271l0.968,1.547l1.175-0.138l0.925-2.81l-3.078-1.271l-2.334-1.271l-2.333,1.59l-2.775,1.4l-2.835-1.141L205.68,506.748L205.68,506.748z"/>
    <path id="pe" d="M 209.518 541.246 L 207.841 542.941 L 207.954 545.644 L 222.597 572.338 L 237.802 582.14 L 240.153 578.199 L 240.715 569.53 L 239.487 564.128 L 237.628 560.826 L 234.335 559.249 L 231.768 559.166 L 224.589 553.976 L 224.471 547.162 L 227.753 543.445 L 230.534 540.621 L 227.525 539.448 L 224.508 534.384 L 222.831 533.822 L 222.944 536.866 L 215.458 545.761 L 209.865 544.412 L 209.518 541.246 Z"/>
    <g id="pg">
      <path class="mainland" d="M 752.132 540.183 L 745.964 536.275 L 739.053 540.779 L 735.873 538.828 L 735.77 532.78 L 734.157 532.477 L 730.527 532.87 L 728.233 534.541 L 729.105 536.416 L 733.051 537.069 L 733.083 538.097 L 730.644 539.965 L 731.832 544.122 L 733.02 544.185 L 734.049 540.07 L 735.952 540.209 L 736.763 544.121 L 746.112 551.872 L 746.385 557.892 L 749.571 561.416 L 754.857 561.145 L 758.859 556.469 L 762.22 556.633 L 764.381 558.57 L 765.099 564.534 L 771.981 568.165 L 773.744 567.517 L 773.744 565.338 L 768.221 560.739 L 765.498 554.446 L 767.659 553.399 L 766.058 549.933 L 762.861 549.855 L 762.056 546.146 L 753.577 540.424 L 752.132 540.183 Z"/>
      <path d="M778.176,546.008l-0.819,0.191l-0.501,2.222l-1.573,1.021l-4.729,0.83l0.19,1.779l4.979-0.249l3.155-1.972l-0.188-3.432L778.176,546.008L778.176,546.008z"/>
      <path d="M776.093,540.797l-0.762,1.08l4.159,3.683l0.569,2.161l1.133-0.13l0.13-2.221l-1.263-1.14L776.093,540.797L776.093,540.797z"/>
    </g>
    <g id="ph">
      <path d="M697.337,496.306l-0.743,1.418l-0.414,1.746l-4.132,5.246l0.25,1.081l1.737-0.251l5.368-5.999L697.337,496.306L697.337,496.306z"/>
      <path d="M704.027,494.309l-0.088,4.331l1.573,1.582l0.578,3.077l1.574,0.337l0.742-1.919l-1.236-0.916l-0.328-5.411L704.027,494.309L704.027,494.309z"/>
      <path d="M708.496,495.978l-0.087,3.829l0.908,1.495l1.571-1.832l-0.414-3.328L708.496,495.978L708.496,495.978z"/>
      <path d="M709.481,492.641l1.572,2.083l0.743,1.997h1.409l-0.25-3.415l-1.573-1.08L709.481,492.641L709.481,492.641z"/>
      <path d="M712.542,500.472l0.328,2.498l-2.896,2.334l-2.396,0.251l-2.56,2.749l0.087,1.252l2.396-0.751l1.651-1.08l1.408,3.578l2.48,1.747l0.994-0.338l0.907-1.08l-1.979-1.997l1.159-0.916l1.322,1.08l0.906-1.495l-0.906-1.833l-0.164-4.08L712.542,500.472L712.542,500.472z"/>
      <path d="M699.074,475.076l-2.23,1.581l-0.25,4.997l3.477,6.742l1.158,0.915l1.485-1.003l2.56,0.415l0.492,2.248l1.901,0.164l0.908-1.245l-1.158-1.582l-1.409-1.331l-2.974-0.327l-1.573-2.585l1.816-2.749l0.163-2.411l-1.236-3.077L699.074,475.076L699.074,475.076z"/>
      <path d="M700.232,489.979l0.657,2.335l1.158,0.752l0.83-1.081l-1.323-1.832L700.232,489.979L700.232,489.979z"/>
    </g>
    <path id="pk" d="M 553.638 455.082 L 555.886 458.419 L 555.67 460.139 L 552.679 461.325 L 552.462 464.126 L 555.886 464.126 L 557.061 463.157 L 563.58 463.157 L 569.458 468.327 L 570.21 465.846 L 574.593 465.846 L 574.697 462.726 L 570.211 458.421 L 571.171 456.052 L 575.769 455.734 L 582.059 442.528 L 578.543 440.122 L 577.265 435.601 L 573.763 434.788 L 572.408 438.922 L 568.811 444.541 L 563.253 448.094 L 562.501 451.976 L 553.638 455.082 Z"/>
    <g id="pt">
      <path d="M337.112,426.713l-1.175,1.184l2.107,1.185l0.234-1.649L337.112,426.713L337.112,426.713z"/>
      <path d="M343.448,426.004l-1.408,0.941l1.175,0.941l1.876-0.476L343.448,426.004L343.448,426.004z"/>
      <path d="M344.382,429.314l-0.7,1.892l0.935,1.185l1.175-0.941L344.382,429.314L344.382,429.314z"/>
      <path d="M350.01,433.092l-0.467,1.184l0.701,0.709l1.875-1.184L350.01,433.092L350.01,433.092z"/>
    </g>
    <path id="py" d="M267.199,584.458l1.902,2.074l-0.225,4.392l5.48-0.338l4.141,5.299l-0.337,4.729l-2.681,4.054L270,604.893l-0.225-2.256l1.564-3.718l-5.368-3.38h-4.469l-3.354-3.604l2.438-6.968L267.199,584.458L267.199,584.458z"/>
    <path id="ro" d="M457.731,401.281l-0.226,1.279l-5.005,4.166l4.184,6.137l2.682,1.877h4.823l1.591-1.331l2.135-0.276l1.591,0.959l2.818-3.207l-0.545-1.607l-2.861-0.734l-1.953-0.095l0.094-2.749l-2.593-4.08L457.731,401.281L457.731,401.281z"/>
    <g id="ru" transform="matrix(1, 0, 0, 1, 0.257413, -0.268208)">
      <path d="M741.137,353.246l-1.071,1.332l0.087,2.083l0.992-0.086l1.651-2.913L741.137,353.246L741.137,353.246z"/>
      <path d="M739.156,358.329v3.665l1.159,0.415l0.828-1.332v-2.827L739.156,358.329L739.156,358.329z"/>
      <path d="M705.35,345.086l-0.076,5.333l6.689,10.33l2.396,8.989l4.219,7.996l1.649,0.58l1.409-1.168l0.657-1.918l-6.033-6.578l0.164-3.416l1.322-0.578l0.329-1.997l-11.816-16.735L705.35,345.086L705.35,345.086z"/>
      <path d="M751.967,328.516l-1.649,0.164l0.993,1.418l2.065,1.418l0.579-0.666L751.967,328.516L751.967,328.516z"/>
      <path d="M755.183,329.52l0.251,1.416l2.56,0.752l0.251-1.002L755.183,329.52L755.183,329.52z"/>
      <path d="M769.229,334.956l1.08,1.937l1.8-0.121l0.361-1.332L769.229,334.956L769.229,334.956z"/>
      <path d="M787.356,337.98l1.442,2.662l1.08-1.209v-1.815L787.356,337.98L787.356,337.98z"/>
      <path class="mainland" d="M 676.806 290.064 L 685.252 266.68 L 669.831 263.179 L 655.716 266.023 L 653.979 270.398 L 656.149 271.054 L 655.933 274.339 L 642.248 275.868 L 643.121 280.243 L 630.517 278.055 L 633.561 272.367 L 620.742 271.71 L 621.831 277.623 L 617.708 279.594 L 614.232 276.309 L 602.602 278.361 L 596.942 282.505 L 596.112 281.175 L 595.717 286.802 L 591.896 294.527 L 590.103 297.136 L 587.635 298.326 L 585.107 298.714 L 582.509 297.94 L 581.487 296.524 L 581.093 296.399 L 580.423 296.759 L 578.969 298.928 L 579.611 303.273 L 574.931 309.756 L 571.012 316.527 L 568.141 323.441 L 567.123 329.25 L 567.35 335.795 L 564.427 340.898 L 557.833 344.606 L 551.89 351.465 L 548.803 362.61 L 548.796 369.437 L 547.51 374.339 L 544.535 379.88 L 538.574 385.822 L 535.054 386.813 L 533.036 388.341 L 532.018 391.037 L 531.739 392.342 L 532.037 393.698 L 533.902 396.64 L 534.902 400.996 L 534.142 405.156 L 533.139 407.279 L 531.8 409.536 L 531.431 411.561 L 532.287 414.612 L 531.743 416.706 L 533.809 417.323 L 535.335 418.872 L 536.069 421.093 L 537.095 422.027 L 538.616 422.642 L 540.126 424.444 L 541.807 426.07 L 544.706 427.188 L 548.299 426.572 L 550.847 427.584 L 551.671 429.157 L 557.23 428.529 L 554.753 416.091 L 561.258 416.54 L 571.492 420.592 L 574.729 416.711 L 575.51 411.965 L 575.581 404.692 L 576.738 396.636 L 581.541 389.958 L 586.721 384.735 L 592.019 381.484 L 595.962 376.864 L 603.817 375.184 L 622.169 357.254 L 651.21 339.861 L 676.191 313.526 L 676.806 290.064 Z" style="fill: rgb(35, 66, 16);"/>
      <path class="mainland" d="M 721.715 301.969 L 723.237 307.225 L 726.28 308.098 L 729.322 303.284 L 727.585 299.999 L 728.233 297.154 L 732.796 297.154 L 731.706 299.342 L 732.14 307.225 L 725.621 323.424 L 726.269 326.925 L 726.053 332.837 L 738.214 350.566 L 740.601 351.223 L 740.817 336.78 L 743.203 334.592 L 740.593 328.904 L 742.764 326.492 L 737.984 320.146 L 735.373 320.363 L 734.508 309.86 L 741.242 308.105 L 741.674 305.037 L 745.152 304.164 L 747.105 305.92 L 749.491 296.289 L 753.615 289.289 L 756.874 287.533 L 759.701 287.75 L 759.701 284.465 L 755.138 283.592 L 748.836 278.336 L 751.88 274.836 L 749.27 268.923 L 751.439 266.736 L 754.049 270.236 L 760.568 272.647 L 767.734 273.304 L 768.607 270.243 L 764.917 266.526 L 769.04 260.838 L 759.695 257.553 L 757.309 262.367 L 754.266 258.426 L 737.108 252.513 L 720.813 255.357 L 718.426 256.671 L 718.426 257.984 L 721.902 259.74 L 721.468 263.897 L 715.167 261.269 L 701.269 266.742 L 698.881 261.711 L 689.32 261.711 L 685.865 267.062 L 677.509 290.206 L 676.87 313.739 L 651.583 340.465 L 622.523 357.659 L 604.233 375.525 L 608.744 381.201 L 612.434 381.859 L 616.126 378.574 L 612.866 376.386 L 615.693 372.012 L 623.732 374.64 L 625.468 378.141 L 628.945 378.357 L 631.115 376.828 L 636.984 376.611 L 637.631 378.141 L 644.364 378.581 L 648.926 373.767 L 658.271 374.865 L 661.098 373.767 L 661.962 368.511 L 659.136 362.165 L 661.962 359.754 L 670.866 359.754 L 679.337 369.823 L 690.194 375.952 L 693.454 375.952 L 693.886 373.325 L 697.793 370.913 L 698.226 385.141 L 694.751 385.357 L 694.751 388.857 L 696.704 391.269 L 696.341 394.398 L 697.784 394.996 L 698.658 392.808 L 699.964 393.249 L 700.828 394.122 L 704.735 393.249 L 708.641 381.864 L 709.075 367.635 L 704.079 356.25 L 697.778 348.593 L 694.734 349.033 L 694.734 351.445 L 687.352 348.6 L 690.178 342.472 L 692.565 326.273 L 702.557 323.213 L 707.336 320.153 L 712.549 320.153 L 711.237 321.907 L 712.543 324.095 L 717.106 319.281 L 719.715 319.496 L 719.283 316.652 L 715.151 315.779 L 717.978 305.492 L 721.715 301.969 Z" style="fill: rgb(35, 66, 16);"/>
    </g>
    <path id="sa" d="M 519.812 458.021 L 525.873 466.464 L 527.826 468.022 L 528.7 471.807 L 538.027 472.541 L 539.082 473.095 L 538.036 477.762 L 531.907 481.375 L 522.943 484.09 L 518.163 488.758 L 512.484 485.446 L 509.045 488.455 L 504.254 480.632 L 500.97 479.128 L 499.778 477.321 L 499.778 473.405 L 487.994 459.504 L 489.942 459.656 L 493.858 458.359 L 495.341 454.943 L 495.045 452.881 L 495.143 450.973 L 493.951 449.772 L 496.346 447.819 L 501.43 448.122 L 510.099 455.348 L 515.216 455.116 L 519.182 455.867 L 519.812 458.021 Z" style=""/>
    <g id="sb">
      <path d="M783.786,549.882l1.072,2.981l1.892,1.842l0.57-0.51l-0.189-1.972l-2.145-2.603L783.786,549.882L783.786,549.882z"/>
      <path d="M789.016,554.324l0.131,1.971l1.2,1.141l1.134-0.7l-1.012-2.102L789.016,554.324L789.016,554.324z"/>
      <path d="M790.528,559.218l-1.012,1.081l1.071,1.97l1.262,0.381l-0.06-1.331L790.528,559.218L790.528,559.218z"/>
      <path d="M792.992,558.076l0.882,2.161l1.702,2.03l0.943-1.521l-1.263-2.161L792.992,558.076L792.992,558.076z"/>
      <path d="M797.409,561.317l0.501,2.671l1.203,1.65l1.011-2.092L797.409,561.317L797.409,561.317z"/>
      <path d="M798.792,567.291l-0.44,0.76l1.452,1.911l1.012,0.062l-0.632-2.482L798.792,567.291L798.792,567.291z"/>
      <path d="M795.576,571.094l-1.514,0.7l1.323,1.843l1.133-0.64L795.576,571.094L795.576,571.094z"/>
    </g>
    <g id="sc">
      <path d="M535.676,548.87l-0.525,1.062l1.442,1.192l1.056-1.192L535.676,548.87L535.676,548.87z"/>
      <path d="M543.049,540.919l-1.582,1.062l1.186,1.857h1.582L543.049,540.919L543.049,540.919z"/>
      <path d="M543.706,545.56l-1.055,1.193l0.786,1.192l1.442,0.269l0.13-2.522L543.706,545.56L543.706,545.56z"/>
    </g>
    <path id="sd" d="M 460.193 503.934 L 463.936 504.05 L 461.269 498.941 L 461.399 494.67 L 464.623 491.898 L 464.704 482.204 L 466.352 481.312 L 466.817 479.02 L 469.134 476.774 L 471.968 475.747 L 488.965 476.25 L 492.154 473.035 L 499.035 484.039 L 495.265 488.481 L 495.265 495.266 L 490.666 505.157 L 489.626 507.457 L 485.917 502.141 L 483.209 505.582 L 480 517.13 L 479.878 519.289 L 467.107 518.739 L 467.265 514.147 L 460.193 503.934 Z"/>
    <g id="se">
      <path class="mainland" d="M445.232,329.52l1.693,1.563h3.173l1.746,3.354l0.477,5.748l-4.278,3.035v3.033l-3.017,4.158l-1.746,0.154l-2.378,3.994l0.155,3.838l4.124,3.035l-0.319,1.754l-1.582,2.396l-2.377,2.074l0.155,6.872l-3.647,1.279l-1.271,2.713h-1.747l-0.949-4.789l-3.969-6.084l3.26-5.455l0.225-13.477l2.248-1.236l0.545-7.709l6.405-9.172L445.232,329.52L445.232,329.52z"/>
      <path d="M445.898,368.927l-1.824,1.443l0.917,2.118l1.616-1.573L445.898,368.927L445.898,368.927z"/>
    </g>
    <path id="so" d="M 525.565 502.471 L 530.48 500.489 L 531.82 501.293 L 531.673 504.647 L 528.191 514.57 L 509.337 534.76 L 507.15 533.257 L 507.003 524.736 L 509.838 521.476 L 515.856 519.619 L 525.398 509.362 L 519.723 509.054 L 513.356 505.24 L 512.97 503.397 L 513.517 502.351 L 512.562 499.934 L 515.469 501.923 L 519.183 503.292 L 521.663 503.527 L 525.565 502.471 Z"/>
    <path id="sr" d="M 268.384 516.715 L 270.147 518.331 L 272.878 516.637 L 275.368 516.715 L 276.278 517.561 L 281.355 520.621 L 278.762 525.833 L 277.713 527.093 L 274.363 525.276 L 268.868 527.305 L 269.11 523.829 L 265.903 520.838 L 266.067 519.3 L 268.384 516.715 Z"/>
    <g id="st">
      <path d="M421.911,530.554l0.993-0.502l0.743,0.604l-0.743,1.148l-0.899-0.354L421.911,530.554L421.911,530.554z"/>
      <path d="M423.907,527.398l1.496-0.251l0.501,0.951l-0.743,0.805l-0.743-0.104L423.907,527.398L423.907,527.398z"/>
    </g>
    <path id="sy" d="M 487.545 437.18 L 487.243 439.376 L 486.432 441.756 L 486.361 444.251 L 489.544 444.753 L 489.576 446.483 L 492.014 446.43 L 494.452 444.588 L 495.368 444.433 L 500.9 440.035 L 502.014 433.645 L 490.958 434.77 L 489.791 437.329 L 487.545 437.18 Z"/>
    <path id="td" d="M 440.971 494.983 L 441.083 492.431 L 445.181 488.448 L 446.28 478.663 L 444.587 475.203 L 447.06 475.465 L 450.741 477.743 L 454 479.35 L 457.639 480.351 L 461.301 481.914 L 463.958 482.102 L 463.845 491.558 L 460.586 494.333 L 460.586 499.208 L 462.722 503.34 L 458.952 503.34 L 466.356 514.235 L 466.213 518.794 L 462.519 518.681 L 459.685 521.484 L 455.201 518.591 L 454.962 517.978 L 448.81 512.251 L 445.253 511.82 L 443.455 508.423 L 442.104 507.757 L 442.278 506.72 L 443.971 505.423 L 443.971 499.357 L 441.628 498.994 L 438.802 496.892 L 440.971 494.983 Z"/>
    <path id="th" d="M 646.578 472.952 L 648.201 470.168 L 650.412 472.447 L 651.951 477.028 L 655.136 479.535 L 660.452 485.673 L 660.262 489.865 L 658.525 489.571 L 656.977 488.592 L 655.819 488.689 L 653.788 492.093 L 654.178 493.944 L 655.82 494.817 L 655.725 496.866 L 654.568 497.454 L 650.598 494.723 L 650.598 492.285 L 648.956 492.19 L 648.282 493.26 L 647.935 504.169 L 650.502 508.855 L 655.049 513.238 L 654.861 514.509 L 652.438 514.415 L 650.217 511.104 L 647.892 511.104 L 644.99 508.759 L 644.116 506.322 L 645.37 504.273 L 645.802 502.422 L 647.168 500.001 L 647.107 494.436 L 643.77 489.613 L 643.631 489.025 L 644.712 487.936 L 644.461 484.106 L 640.02 478.479 L 640.539 475.238 L 646.578 472.952 Z"/>
    <path id="tm" d="M 528.328 418.561 L 527.793 420.834 L 524.205 420.834 L 524.205 423.912 L 528.059 426.453 L 526.868 429.935 L 526.868 431.543 L 528.467 431.812 L 530.594 429.001 L 535.383 427.931 L 545.617 431.812 L 545.746 434.621 L 548.737 434.26 L 550.208 432.334 L 551.227 429.762 L 550.437 428.027 L 548.425 427.255 L 544.815 427.793 L 541.471 426.46 L 539.413 424.38 L 538.28 423.005 L 536.71 422.291 L 535.564 421.266 L 534.778 418.924 L 533.328 417.732 L 531.357 417.164 L 529.64 418.009 L 528.328 418.561 Z" class="mountain&quot; id=&quot;tm"/>
    <path id="tn" d="M425.516,435.624l4.78-1.927l1.572,1.02l0.061,1.244l-0.734,0.959l0.111,1.703l0.735,0.396v3.061l-0.847,1.418l0.111,0.908l3.207,1.132l-2.584,4.02l-1.012-0.061l-0.173,3.232l-1.124,0.174l-0.959-0.849l0.225-3.284l-3.146-3.061l-0.397-2.662l1.521-1.192L425.516,435.624L425.516,435.624z"/>
    <g/>
    <path id="tw" d="M695.686,453.76l-3.06,2.334l-0.163,4.494l2.646,3.078l0.656-0.58L695.686,453.76L695.686,453.76z"/>
    <path id="tz" d="M 492.22 560.017 L 506.017 558.327 L 502.622 551.758 L 502.44 545.466 L 503.538 542.457 L 489.171 533.434 L 485.403 533.506 L 483.486 535.434 L 482.966 537.972 L 481.954 541.628 L 480.899 542.881 L 480.877 544 L 481.87 545.815 L 482.573 547.317 L 483.002 549.793 L 482.194 552.44 L 487.404 555.453 L 487.832 557.357 L 492.22 560.017 Z"/>
    <g id="al">
      <path d="M74.791,285.234l2.991,5.594l1.919-0.432v-1.938L74.791,285.234L74.791,285.234z"/>
      <path d="M57.926,334.428l-0.147,2.602l1.867-0.432v-1.158L57.926,334.428L57.926,334.428z"/>
      <path d="M55.057,335.586l-3.734,1.885l0.579,2.022l1.435-1.158l2.87-1.306L55.057,335.586L55.057,335.586z"/>
      <path d="M39.541,338.042l-2.584-0.579l-0.432,1.158l0.285,2.169L39.541,338.042L39.541,338.042z"/>
      <path d="M34.078,337.902l-2.446-1.01l-0.865,1.59l1.582,1.591L34.078,337.902L34.078,337.902z"/>
      <path d="M95.485,277.922l-7.252,1.721l1.496,8.168l7.892,2.151l0.423,1.72l-11.73,3.657l-6.613,10.96l2.343,11.609l3.838,2.576l2.991-2.793l0.856,1.721l-3.63,4.296l-14.082,6.449l-8.964,2.151l-0.216,3.225l20.694-6.016l8.532-2.369l7.892-9.674l8.748-5.8l-4.478,7.521l4.91,0.647l8.324-3.656l1.496,6.017l5.757,1.288l5.973,5.8l0.423,4.296l-0.855,1.072l1.063,4.08h1.496l0.216-6.881h1.703l0.423,16.977l4.271-3.657l-2.991-17.625h-4.478l-4.91-6.231l24.108-40.844l-23.892-18.696l-26.667,5.161l-1.063,8.168l5.757,3.439l-2.135,5.594L95.485,277.922L95.485,277.922z"/>
    </g>
    <path id="uy" d="M274.633,612.481l-1.773,1.894l0.735,10.183l5.566,1.615l7.08-7.097L274.633,612.481L274.633,612.481z"/>
    <g id="vc">
      <path d="M258.823,489.822l-0.917,0.847l0.683,1.383l1.296-0.38L258.823,489.822L258.823,489.822z"/>
      <path id="lc" d="M258.746,493.28l-0.614,1.306l0.994,1.071l1.296-0.691L258.746,493.28L258.746,493.28z"/>
      <path id="tt" d="M258.97,502.572l-0.917,0.847l-0.994,0.155v1.228l1.833,1.687l0.76-1.229l0.458-1.383l-0.156-1.149L258.97,502.572L258.97,502.572z"/>
      <path d="M258.823,496.582l-1.063,0.77l0.839,1.539l1.374-0.77L258.823,496.582L258.823,496.582z"/>
      <path d="M257.526,499.573l-0.994,0.994l0.38,0.612h1.219l0.38-1.003L257.526,499.573L257.526,499.573z"/>
    </g>
    <path id="ve" d="M 231.5 503.558 L 231.88 505.797 L 234.689 506.689 L 235.329 502.565 L 238.294 499.497 L 241.259 502.972 L 248.079 504.831 L 253.853 503.62 L 257.786 508.469 L 260.751 510.327 L 262.874 511.681 L 267.527 516.299 L 265.264 518.855 L 258.59 519.032 L 256.032 516.672 L 252.204 518.247 L 248.393 520.655 L 247.066 521.925 L 247.036 523.139 L 245.601 523.687 L 245.375 525.624 L 244.579 527.252 L 242.251 527.361 L 241.648 515.273 L 231.465 511.797 L 229.615 506.377 L 231.5 503.558 Z"/>
    <path id="vn" d="M 659.035 502.287 L 660.062 503.903 L 660.252 505.754 L 662.957 506.048 L 666.243 501.665 L 669.338 500.792 L 670.981 496.314 L 670.21 489.105 L 667.021 484.721 L 663.659 482.033 L 659.381 474.684 L 662.449 469.549 L 658.056 464.51 L 654.539 464.356 L 648.921 466.088 L 648.249 469.214 L 650.844 471.964 L 652.425 476.683 L 655.578 479.217 L 660.898 485.374 L 666.872 487.722 L 665.967 497.272 L 659.035 502.287 Z"/>
    <g id="vu">
      <path id="nc" d="M798.706,602.576l-0.303,1.547l3.983,5.559l2.145,0.926l0.303-2.161L798.706,602.576L798.706,602.576z"/>
      <path d="M811.006,582.479l-1.071,1.435l0.45,1.616l0.535,0.362l0.979-1.262L811.006,582.479L811.006,582.479z"/>
      <path d="M811.542,586.879l0.087,1.167l1.158,0.363l0.805-0.449l-0.805-1.264L811.542,586.879L811.542,586.879z"/>
      <path d="M813.236,597.303l-0.536,0.812l0.804,0.897l1.34-0.448L813.236,597.303L813.236,597.303z"/>
    </g>
    <path id="za" d="M 476.731 588.02 L 469.902 594.331 L 468.277 598.229 L 462.866 597.555 L 458.363 601.557 L 455.372 601.263 L 455.613 595.732 L 454.551 595.36 L 453.808 606.674 L 448.5 606.622 L 446.9 604.736 L 444.556 604.712 L 446.693 610.841 L 450.505 614.445 L 447.782 617.617 L 449.546 621.594 L 453.626 623.152 L 456.876 620.385 L 466.187 620.438 L 466.854 619.608 L 470.986 618.88 L 484.964 604.963 L 485.269 601.253 L 484.864 598.776 L 482.216 596.314 L 481.999 589.243 L 476.731 588.02 Z"/>
    <path id="zm" d="M 459.78 571.656 L 462.519 575.458 L 466.763 575.719 L 468.494 576.313 L 468.62 578.321 L 471.886 581.873 L 479.684 569.838 L 487.241 566.445 L 492.252 563.739 L 490.785 561.318 L 489.137 560.649 L 486.932 558.77 L 485.357 556.794 L 482.845 555.676 L 480.527 554.19 L 477.948 554.45 L 477.141 557.648 L 476.669 559.388 L 477.35 561.275 L 477.974 564.146 L 476.765 565.861 L 474.392 566.294 L 472.317 564.761 L 469.796 563.88 L 467.697 562.423 L 466.801 561.346 L 466.166 560.581 L 465.262 560.195 L 464.951 563.635 L 459.989 563.79 L 459.78 571.656 Z"/>
    <g transform="matrix(1, 0, 0, 1, -125.81868, -30.65292)">
      <path id="path-2" d="M 596.297 453.444 L 597.232 451.414 L 595.185 449.874 L 592.999 450.79 L 591.522 454.53 L 593.765 454.506 L 596.297 453.444 Z"/>
      <path id="path-3" d="M 598.779 452.603 L 598.807 454.07 L 596.861 455.947 L 591.686 455.697 L 589.776 457.79 L 589.776 458.811 L 590.996 459.832 L 590.996 460.955 L 590.485 462.287 L 590.996 463.41 L 592.621 462.598 L 594.246 464.335 L 593.84 465.563 L 593.236 466.383 L 594.143 467.404 L 598.604 468.32 L 601.743 466.989 L 601.743 465.052 L 603.264 465.355 L 606.912 467.499 L 610.86 466.885 L 612.581 465.252 L 613.695 465.658 L 613.695 467.499 L 615.216 467.499 L 616.529 464.949 L 628.078 463.72 L 633.118 463.107 L 631.787 461.361 L 631.762 459.002 L 632.773 457.792 L 629.091 454.836 L 629.288 452.285 L 627.266 452.285 L 623.912 450.642 L 621.983 452.683 L 614.895 452.474 L 610.642 449.925 L 606.56 450.291 L 602.016 453.02 L 598.779 452.603 Z"/>
    </g>
    <path d="M 447.288 387.023 L 446.082 387.123 L 444.957 386.997 L 443.667 386.562 L 442.634 386.432 L 441.531 386.232 L 440.348 385.777 L 439.203 385.028 L 438.09 384.601 L 437.092 383.856 L 439.291 382.52 L 440.518 381.721 L 441.887 381.256 L 444.483 380.848 L 446.615 381.376 L 448.8 380.992 L 454.501 381.102 L 456.972 384.909 L 456.408 386.48 L 455.194 387.667 L 453.556 388.251 L 452.137 387.91 L 450.281 387.079 L 447.288 387.023 Z"/>
    <path d="M 421.9 384.607 L 425.197 384.073 L 425.217 381.383 L 427.623 380.917 L 429.199 382.897 L 430.694 383.061 L 433.028 382.049 L 435.111 382.637 L 437.833 384.773 L 438.949 385.238 L 440.013 385.924 L 441.281 386.496 L 443.448 386.86 L 444.617 387.314 L 445.975 387.52 L 446.863 387.399 L 443.025 390.378 L 439.393 391.962 L 439.35 392.382 L 436.615 392.959 L 434.613 394.217 L 433.074 395.21 L 433.205 395.942 L 436.553 399.241 L 436.278 401.344 L 433.028 402.868 L 430.386 402.945 L 430.184 400.808 L 430.428 399.12 L 429.451 396.739 L 427.749 395.184 L 427.053 393.066 L 425.815 391.745 L 424.664 390.81 L 422.853 389.143 L 421.9 384.607 Z"/>
    <path d="M 422.867 389.603 L 424.416 391.111 L 425.503 391.988 L 426.651 393.266 L 427.282 395.302 L 429.114 396.981 L 429.95 399.121 L 429.64 400.737 L 429.879 402.779 L 429.126 404.369 L 427.545 404.369 L 426.654 402.632 L 423.285 402.143 L 421.43 404.318 L 421.226 402.275 L 420.884 400.385 L 421.675 398.733 L 422.413 398.874 L 422.566 398.481 L 422.68 396.62 L 422.274 395.292 L 420.292 393.468 L 420.706 390.614 L 422.867 389.603 Z"/>
    <path id="path-1" d="M 645.141 461.426 L 645.16 452.009 L 644.377 447.212 L 635.006 441.456 L 628.22 440.691 L 623.103 441.403 L 617.392 439.896 L 610.945 441.546 L 604.533 441.022 L 601.443 439.471 L 599.988 437.39 L 598.753 434.801 L 595.57 433.108 L 590.92 429.957 L 587.535 429.417 L 583.555 427.149 L 583.039 423.581 L 580.18 419.26 L 580.933 414.177 L 581.207 407.497 L 582.741 400 L 585.285 396.948 L 588.777 394.383 L 592.519 392.004 L 593.859 388.628 L 595.968 385.936 L 599.004 383.818 L 602.61 380.842 L 608.451 381.712 L 603.619 375.653 L 596.618 377.21 L 592.767 381.791 L 587.276 385.077 L 582.304 389.973 L 577.438 396.733 L 576.319 404.543 L 576.306 411.526 L 575.533 416.474 L 572.411 420.377 L 573.406 423.004 L 574.837 424.736 L 575.287 426.011 L 572.499 428.757 L 570.261 430.949 L 569.169 433.078 L 568.212 435.638 L 566.502 437.118 L 565.404 438.695 L 564.244 440.907 L 562.886 442.187 L 554.261 444.194 L 550.563 447.369 L 550.816 448.631 L 548.204 450.949 L 552.926 454.753 L 562.011 451.642 L 562.723 447.858 L 568.468 444.256 L 571.922 438.78 L 573.248 434.674 L 574.716 432.833 L 576.46 431.209 C 576.46 431.209 579.001 431.307 578.898 431.307 L 581.771 431.77 L 586.216 434.684 L 589.958 439.083 L 590.071 445.48 L 594.784 448.261 L 599.519 447.232 L 606.212 451.132 L 613.524 453.127 L 621.615 452.31 L 629.863 446.906 L 632.466 447.058 L 634.063 449.803 L 636.171 450.379 L 639.696 455.04 L 637.544 459.976 L 638.761 463.068 L 642.58 464.565 L 643.211 468.496 L 647.462 469.178 L 648.152 465.768 L 646.077 463.24 L 645.141 461.426 Z" class="mountain&quot; id=&quot;path-1"/>
    <path id="path-5" d="M 618.047 456.388 L 616.644 457.521 L 619.741 460.547 L 624.549 460.763 L 624.549 462.701 L 623.054 464.317 L 623.372 465.18 L 625.939 465.284 L 626.475 468.188 L 627.227 468.188 L 629.155 464.739 L 630.113 455.697 L 633.32 453.432 L 633.424 450.312 L 632.145 447.831 L 630.114 447.727 L 622.163 452.983 L 622.663 456.363 L 618.047 456.388 Z"/>
    <path id="path-8" d="M 580.426 470.99 L 586.813 464.243 L 589.197 456.148 L 589.424 450.285 L 589.37 445.784 L 582.729 442.793 L 576.064 456.434 L 571.604 456.771 L 570.87 458.415 L 575.262 462.477 L 575.046 466.582 L 570.56 466.513 L 570.076 468.553 L 573.803 468.389 L 573.907 470.005 L 571.236 471.405 L 572.947 474.637 L 576.259 475.717 L 578.29 474.213 L 579.249 471.525 L 580.426 470.99 Z"/>
    <path id="path-9" d="M 585.504 435.064 L 581.518 432.474 L 578.748 431.883 L 576.77 431.739 L 575.132 433.221 L 574.114 434.483 L 577.642 435.337 L 578.913 439.842 L 582.414 442.097 L 589.192 445.079 L 588.976 439.156 L 585.504 435.064 Z"/>
    <path id="path-10" d="M 599.143 505.464 L 598.832 508.005 L 599.557 507.587 L 601.317 499.393 L 601.213 488.952 L 614.681 474.412 L 614.681 470.965 L 617.455 469.884 L 617.384 466.75 L 613.65 466.803 L 608.564 465.11 L 602.789 463.306 L 594.96 462.919 L 591.077 465.479 L 593.338 468.57 L 595.345 470.326 L 599.071 472.805 L 600.168 475.173 L 600.34 477.606 L 598.962 480.809 L 598.183 484.686 L 594.88 488.492 L 594.03 493.451 L 593.984 496.71 L 596.374 498.709 L 598.528 501.725 L 599.143 505.464 Z"/>
    <path id="path-11" d="M 587.587 464.405 L 590.376 464.658 L 594.844 461.973 L 602.902 462.318 L 608.615 463.917 L 613.938 465.764 L 617.491 465.672 L 614.5 459.855 L 616.212 456.734 L 617.292 455.98 L 615.322 453.57 L 614.25 453.708 L 614.613 457.062 L 602.538 456.199 L 595.053 452.862 L 594.656 448.756 L 590.229 446.01 L 590.113 455.954 L 587.587 464.405 Z" style=""/>
    <path id="path-12" d="M 594.986 509.646 L 597.769 508.114 L 598.226 505.169 L 597.709 501.733 L 595.658 498.828 L 593.162 496.747 L 593.238 493.212 L 591.705 490.909 L 588.985 487.588 L 587.558 484.999 L 587.733 482.054 L 586.596 479.63 L 586.36 477.805 L 587.506 476.067 L 590.145 474.606 L 592.143 472.11 L 592.554 468.417 L 590.341 465.395 L 587.262 465.055 L 580.956 471.138 L 581.955 472.304 L 581.531 475.753 L 580.571 477.37 L 580.788 480.17 L 594.986 509.646 Z" style=""/>
    <path id="path-16" d="M 588.445 481.812 L 588.275 484.632 L 589.552 487.149 L 592.027 489.999 L 593.657 492.408 L 594.199 488.282 L 597.637 484.376 L 598.37 480.424 L 599.769 477.365 L 599.607 475.14 L 598.595 473.029 L 594.957 470.525 L 592.936 468.634 L 592.556 472.318 L 590.613 475.03 L 588.117 476.49 L 587.165 477.904 L 587.319 479.327 L 588.445 481.812 Z"/>
    <path id="path-13" d="M 478.299 541.824 L 478.16 543.772 L 479.272 547.719 L 479.145 550.524 L 478.532 551.756 L 476.033 553.011 L 473.68 556.649 L 474.262 559.672 L 473.683 561.545 L 471.303 560.951 L 465.057 558.902 L 465.016 559.725 L 466.371 560.349 L 467.879 562.166 L 469.882 563.586 L 472.532 564.493 L 474.481 565.888 L 476.456 565.498 L 477.513 564.039 L 476.969 561.561 L 476.181 559.681 L 477.574 554.2 L 480.728 553.878 L 483.176 555.47 L 485.661 556.605 L 487.204 558.591 L 489.404 560.438 L 491.063 561.055 L 492.199 562.989 L 492.505 563.032 L 492.124 560.871 L 492.156 560.329 L 487.493 557.551 L 487.004 555.742 L 481.503 552.68 L 482.489 549.776 L 482.127 547.586 L 481.462 546.167 L 480.363 544.387 L 480.454 542.541 L 481.496 541.331 L 482.522 537.668 L 483.054 535.194 L 484.776 533.409 L 484.206 527.869 L 483.163 527.456 L 482.254 528.958 L 481.555 531.3 L 479.647 534.038 L 479.117 536.908 L 478.929 538.962 L 478.299 541.824 Z" class="mountain&quot; id=&quot;path-13"/>
    <path d="M 445.507 472.402 L 443.374 473.571 L 444.027 474.856 L 447.194 475.19 L 451.079 477.598 L 454.195 479.085 L 457.938 480.038 L 461.382 481.505 L 464.519 481.706 L 465.951 481.023 L 466.448 478.883 L 468.905 476.549 L 471.278 475.665 L 471.442 475.477 L 470.003 475.084 L 468.511 474.795 L 466.329 474.318 L 465.718 474.568 L 465.428 475.866 L 465.055 478.149 L 463.574 479.204 L 459.748 479.407 L 445.507 472.402 Z" class="mountain&quot; d=&quot;M 445.507 472.402 L 443.374 473.571 L 444.027 474.856 L 447.194 475.19 L 451.079 477.598 L 454.195 479.085 L 457.938 480.038 L 461.382 481.505 L 464.519 481.706 L 465.951 481.023 L 466.448 478.883 L 468.905 476.549 L 471.278 475.665 L 471.442 475.477 L 470.003 475.084 L 468.511 474.795 L 466.329 474.318 L 465.718 474.568 L 465.428 475.866 L 465.055 478.149 L 463.574 479.204 L 459.748 479.407 L 445.507 472.402 Z"/>
    <g id="km" transform="matrix(0.610507, 0, 0, 0.589732, 202.14119, 230.664185)">
      <path d="M514.359,560.013l0.396,1.321l1.711,0.269l0.656-1.72L514.359,560.013L514.359,560.013z"/>
      <path d="M516.857,562.666l0.656,1.461h1.055l0.526-1.857L516.857,562.666L516.857,562.666z"/>
    </g>
    <g id="g-1" transform="matrix(1, 0, 0, 1, -276.233521, 100.502029)">
      <path d="M 1010.854 565.498 L 1009.323 571.679 L 1009.627 576.001 L 1014.226 575.689 L 1019.439 567.659 L 1010.854 565.498 Z"/>
      <path class="mainland" d="M 1036.639 529.29 L 1032.067 526.648 L 1020.821 527.155 L 1010.714 530.292 L 1002.867 534.217 L 999.644 540.563 L 999.902 542.385 L 995.994 545.73 L 997.294 546.948 L 1000.157 545.73 L 999.378 555.774 L 1004.851 560.646 L 1007.979 559.428 L 1009.542 561.251 L 1018.662 559.726 L 1027.262 543.593 L 1030.389 542.681 L 1036.639 529.29 Z" style=""/>
    </g>
    <g id="g-2" transform="matrix(0.372719, 0, 0, 0.347784, -154.431732, -31.126625)"/>
    <g id="g-3" transform="matrix(1, 0, 0, 1, -424.057526, 7.576599)">
      <path id="pr" d="M 673.558 475.101 L 671.056 474.237 L 669.046 475.527 L 670.051 476.729 L 673.473 477.244 L 673.558 475.101 Z" style=""/>
      <path d="M 677.222 476.377 L 675.51 477.147 L 676.115 478.8 L 678.124 477.37 L 677.724 476.922 L 677.222 476.377 Z" style=""/>
      <path id="dm" d="M 679.594 478.591 L 678.804 480.3 L 679.756 481.599 L 680.941 480.548 L 679.594 478.591 Z" style=""/>
    </g>
    <path d="M 696.192 591.154 L 689.993 591.37 L 677.016 596.795 L 672.365 609.221 L 683.019 606.073 L 695.127 606.731 L 700.124 611.314 L 707.189 618.625 L 711.68 623.826 L 718.465 628.206 L 725.552 633.76 L 735.034 629.65 L 734.344 612.311 L 718.83 577.751 L 714.898 579.104 L 714.594 574.16 L 698.342 584.049 L 698.646 587.757 L 696.192 591.154 Z"/>
    <path d="M 672.135 609.902 L 671.832 631.84 L 668.461 634.312 L 668.158 636.473 L 672.756 639.559 L 684.106 637.398 L 689.932 637.398 L 692.077 634.303 L 704.956 631.831 L 714.154 634.615 L 713.54 638.323 L 714.768 642.031 L 721.823 640.795 L 725.429 634.556 L 718.278 628.912 L 711.521 624.538 L 707.695 620.095 L 700.139 612.144 L 694.578 607.258 L 682.624 606.789 L 672.135 609.902 Z"/>
  </g>
</svg>